<?xml version="1.0" standalone="no"?>
<!DOCTYPE svg PUBLIC "-//W3C//DTD SVG 20010904//EN"
 "http://www.w3.org/TR/2001/REC-SVG-20010904/DTD/svg10.dtd">
<svg version="1.0" xmlns="http://www.w3.org/2000/svg"
 width="391.000000pt" height="479.000000pt" viewBox="0 0 391.000000 479.000000"
 preserveAspectRatio="xMidYMid meet">

<g transform="translate(0.000000,479.000000) scale(0.100000,-0.100000)"
fill="#000000" stroke="none">
<path d="M0 2395 l0 -2395 1955 0 1955 0 0 2395 0 2395 -1955 0 -1955 0 0
-2395z m1695 2280 c-11 -9 -42 -30 -69 -46 -26 -17 -46 -32 -43 -35 3 -3 18 2
34 12 l28 17 -27 -24 c-28 -25 -48 -66 -48 -100 0 -18 3 -17 26 8 l26 28 -23
-40 c-13 -22 -29 -71 -36 -110 l-12 -70 4 70 c2 39 5 96 8 128 2 31 2 56 0 54
-4 -4 -22 -99 -28 -149 -5 -34 9 -161 20 -199 4 -11 -8 -23 -40 -40 -25 -13
-48 -32 -51 -42 -3 -9 -9 -15 -13 -13 -4 3 -13 0 -21 -6 -13 -8 -12 -9 1 -5
13 4 18 -10 27 -83 18 -148 69 -235 142 -242 33 -3 35 -5 38 -45 3 -42 2 -43
-28 -43 -17 0 -43 -6 -59 -14 -24 -13 -32 -12 -73 7 l-46 21 -6 101 c-4 55 -9
129 -12 165 -4 61 -44 689 -44 700 0 3 78 6 173 8 158 2 170 1 152 -13z m831
-62 c-3 -42 -6 -88 -6 -103 0 -22 -6 -29 -25 -32 -14 -3 -25 -1 -25 3 0 8 15
13 33 10 4 0 7 12 7 29 0 24 -3 28 -17 23 -11 -4 -12 -8 -5 -11 7 -2 12 -8 12
-13 0 -6 -7 -6 -17 -1 -18 10 -55 2 -54 -11 3 -22 -1 -26 -15 -20 -13 5 -13 7
-2 14 7 5 9 9 3 8 -15 0 -54 -23 -54 -31 -1 -5 -2 -47 -3 -95 l-1 -88 -6 110
c-8 135 -29 179 -105 227 -28 18 -53 33 -55 34 -1 2 0 7 4 13 4 7 65 11 172
11 l166 0 -7 -77z m1284 -106 c0 -140 -3 -184 -12 -184 -19 0 -115 -22 -187
-44 -59 -18 -121 -17 -92 0 19 12 3 37 -26 39 -15 1 -36 10 -47 20 -21 17 -21
17 -2 -5 18 -22 18 -24 2 -42 -22 -24 -91 -37 -111 -21 -8 6 -19 9 -24 5 -7
-3 -8 0 -5 10 6 14 9 14 33 0 l26 -16 -23 20 c-27 24 -26 51 4 66 17 8 19 14
10 27 -15 24 3 37 19 14 8 -10 13 -22 10 -25 -2 -4 5 -7 16 -7 10 0 19 4 19 8
0 4 -5 8 -11 8 -6 0 -19 10 -29 23 -22 27 -10 47 29 47 34 -1 56 -18 64 -52 7
-26 8 -26 37 -12 31 16 37 28 20 39 -18 11 -11 36 22 77 l32 40 -35 -7 c-19
-4 -53 -22 -75 -41 -39 -31 -42 -32 -57 -16 -16 17 -13 62 3 62 17 0 29 50 19
77 -12 31 -26 43 -53 43 -13 0 -17 -5 -13 -20 3 -11 -3 -30 -12 -41 -14 -18
-21 -20 -39 -10 -11 6 -23 7 -26 3 -7 -12 10 -35 22 -28 6 3 23 -11 39 -31 15
-21 35 -43 43 -50 17 -13 14 -18 -17 -27 -19 -6 -23 -3 -23 13 0 26 -10 51
-21 51 -5 0 -4 -12 1 -26 14 -35 14 -35 -19 -5 -16 15 -31 36 -35 46 -3 11 -4
-1 -2 -27 3 -39 0 -48 -13 -48 -14 -1 -14 -2 1 -14 24 -18 16 -22 -33 -18 -30
3 -38 7 -28 14 11 8 12 11 1 15 -10 4 -9 9 4 24 16 18 16 19 -2 19 -17 1 -16
3 6 21 14 11 33 27 43 34 9 8 17 19 17 25 0 12 -27 3 -63 -22 -15 -11 -25 -23
-22 -28 3 -5 0 -12 -6 -16 -8 -4 -9 -3 -5 4 11 19 -5 14 -21 -5 -7 -10 -23
-36 -34 -58 -12 -22 -23 -42 -25 -44 -1 -2 -15 6 -30 18 -15 11 -32 21 -39 21
-7 0 -24 9 -38 20 -22 18 -26 18 -38 4 -7 -9 -32 -29 -56 -45 -23 -16 -42 -33
-42 -37 3 -19 -2 -26 -10 -13 -11 18 -75 26 -67 8 3 -6 9 -20 12 -29 4 -10 12
-18 18 -18 7 0 27 -16 46 -35 26 -27 31 -38 22 -47 -18 -18 -15 -41 13 -81
l24 -36 -43 -19 c-23 -11 -54 -31 -69 -46 l-27 -27 -1 43 c-1 42 -2 42 -12 16
-6 -16 -15 -28 -20 -28 -4 0 -6 4 -2 9 3 5 2 12 -2 14 -5 3 -6 28 -5 56 2 28
8 49 13 46 4 -3 5 -13 2 -23 -5 -15 -4 -15 13 1 18 17 18 19 2 28 -10 6 -18
15 -18 20 0 6 4 8 9 5 4 -3 17 1 27 9 18 14 17 15 -8 9 -38 -8 -35 0 7 25 19
11 35 26 35 33 0 8 -4 6 -12 -4 -7 -8 -27 -20 -44 -27 -29 -11 -33 -18 -49
-94 -9 -45 -21 -87 -26 -93 -5 -6 -6 -13 -3 -17 8 -7 -43 -40 -69 -44 -18 -3
-19 1 -13 59 3 35 13 178 22 318 9 140 18 261 20 268 3 9 128 12 584 12 l580
0 0 -183z m-3326 156 c22 -10 65 -30 96 -45 l55 -28 -50 6 c-27 3 -77 7 -111
9 -81 5 -357 54 -368 66 -6 5 56 9 164 9 143 0 180 -3 214 -17z m450 -11 c-16
-16 -32 -27 -35 -26 -4 2 -13 -4 -20 -14 -12 -15 -12 -16 1 -6 9 7 23 8 35 3
19 -8 19 -8 -2 -15 -13 -3 -23 -10 -23 -15 0 -12 -121 -11 -140 1 -18 11 -19
10 52 52 32 19 55 38 51 41 -3 4 20 7 52 7 l58 0 -29 -28z m73 -9 c-3 -10 -5
-4 -5 12 0 17 2 24 5 18 2 -7 2 -21 0 -30z m73 26 c0 -5 -4 -8 -9 -4 -5 3 -12
-5 -14 -17 -4 -20 -4 -19 -6 5 -1 18 4 27 14 27 8 0 15 -5 15 -11z m57 -21
c-3 -7 -5 -2 -5 12 0 14 2 19 5 13 2 -7 2 -19 0 -25z m103 17 c0 -8 -9 -19
-20 -25 -15 -8 -20 -8 -20 3 0 14 19 37 32 37 4 0 8 -7 8 -15z m12 -52 c-3
-33 -8 -43 -22 -43 -25 0 -37 40 -16 52 9 5 22 15 29 23 15 16 15 18 9 -32z
m-132 -13 c0 -20 -2 -22 -10 -10 -5 8 -10 26 -10 40 0 20 2 22 10 10 5 -8 10
-26 10 -40z m560 36 c0 -2 -7 -7 -16 -10 -8 -3 -12 -2 -9 4 6 10 25 14 25 6z
m613 -56 c25 -29 47 -114 33 -127 -3 -4 -6 6 -6 21 0 39 -34 100 -77 136 -37
31 -37 31 -7 16 18 -8 43 -29 57 -46z m-1206 3 c-3 -10 -5 -4 -5 12 0 17 2 24
5 18 2 -7 2 -21 0 -30z m-67 2 c0 -8 -7 -15 -15 -15 -13 0 -14 3 -3 15 16 18
18 18 18 0z m811 6 c-19 -13 -6 -41 19 -41 16 0 21 -5 19 -22 -2 -13 0 -29 4
-35 6 -10 2 -11 -18 -3 -44 17 -58 13 -53 -14 3 -16 0 -27 -10 -31 -10 -3 -12
-13 -8 -30 5 -18 2 -27 -9 -31 -8 -3 -13 -10 -10 -14 9 -14 -24 -32 -47 -25
-13 4 -18 3 -11 -2 6 -5 12 -27 11 -51 0 -32 -4 -42 -17 -42 -29 0 -61 30 -61
57 0 22 -4 25 -25 21 -24 -5 -25 -3 -24 46 0 28 6 69 13 91 11 37 19 43 105
87 51 27 102 48 114 48 17 0 19 -2 8 -9z m-886 -11 c4 -6 -6 -10 -22 -9 -25 0
-26 1 -8 9 11 5 21 9 22 9 1 1 5 -3 8 -9z m-325 -33 c0 -8 -18 -19 -40 -26
-22 -6 -56 -25 -74 -42 -34 -30 -34 -30 -20 -65 l15 -35 -53 -23 c-66 -29
-119 -43 -60 -16 58 27 53 32 -10 10 l-53 -19 -5 42 -5 42 -15 -25 c-7 -14
-13 -35 -11 -47 1 -11 -2 -24 -7 -27 -5 -3 -13 24 -17 62 -4 37 -8 75 -10 85
-2 9 1 15 6 11 5 -3 9 -15 9 -27 0 -12 3 -32 6 -44 l6 -23 19 24 c40 51 16 89
-56 89 -60 0 -75 -15 -75 -74 0 -26 -4 -51 -10 -54 -5 -3 -10 -14 -10 -24 0
-10 -10 -22 -22 -26 l-23 -8 22 -4 c20 -4 22 -11 25 -85 3 -81 3 -82 33 -90
57 -16 84 -18 90 -8 4 6 11 8 16 5 8 -5 14 16 10 38 0 4 5 7 12 7 8 0 22 9 32
20 14 15 16 25 8 43 -14 34 -5 54 29 61 45 9 55 -5 50 -72 -3 -45 0 -62 12
-74 20 -20 20 -25 1 -25 -8 0 -15 6 -15 13 0 14 -28 27 -41 18 -5 -3 -7 -9 -4
-14 3 -4 -4 -10 -16 -13 -16 -4 -18 -3 -9 8 8 10 4 14 -16 18 -22 4 -28 0 -36
-24 -5 -16 -14 -26 -19 -23 -5 3 -17 0 -26 -6 -15 -9 -15 -11 -2 -7 16 5 131
-31 145 -46 4 -4 -1 -13 -11 -21 -16 -12 -27 -10 -84 14 -47 20 -68 25 -73 17
-10 -17 28 -53 78 -74 24 -10 44 -23 44 -30 0 -8 174 -102 265 -142 6 -2 2 5
-8 17 -11 11 -51 36 -91 55 -88 41 -131 80 -110 98 8 6 25 8 39 5 20 -5 25 -3
25 14 0 21 24 28 35 10 3 -5 14 -10 23 -10 14 0 14 2 3 9 -7 5 -10 14 -7 20 4
6 -1 14 -11 18 -27 9 -43 24 -37 34 3 5 20 -2 38 -16 18 -14 38 -25 45 -25 6
0 21 -6 32 -12 17 -10 23 -10 26 0 8 22 31 13 27 -10 -2 -13 -2 -17 2 -10 9
19 21 15 57 -22 27 -26 56 -40 143 -65 285 -84 273 -82 336 -50 36 18 39 22
26 36 -14 13 -19 13 -46 -1 -17 -9 -45 -16 -62 -16 -32 0 -31 -1 -34 74 -1 24
-6 30 -30 33 -16 2 -35 11 -43 19 -8 7 -21 14 -29 14 -17 0 -19 17 -2 22 6 2
29 0 50 -6 45 -12 52 -7 43 34 -7 30 -8 31 -26 14 -11 -10 -19 -12 -19 -6 0 7
3 12 8 12 4 0 15 12 25 28 15 23 17 24 12 5 -4 -13 -2 -23 4 -23 5 0 11 -14
13 -32 2 -17 9 -33 16 -36 14 -4 9 120 -9 236 -9 56 -8 64 11 84 l20 22 1 -25
c1 -45 6 -69 13 -76 4 -5 7 -1 6 7 -4 26 0 40 10 40 6 0 10 -13 10 -29 0 -17
4 -32 9 -35 4 -3 6 7 4 22 -3 23 -2 24 6 7 5 -11 14 -63 20 -115 20 -168 20
-166 49 -179 18 -9 28 -9 30 -2 10 30 22 4 21 -46 0 -32 -3 -51 -7 -43 -4 8
-19 16 -34 18 -25 3 -27 1 -23 -25 2 -15 7 -45 10 -65 5 -32 11 -39 37 -46 45
-11 48 -32 5 -28 -19 2 -39 6 -46 10 -16 11 -14 -9 4 -24 22 -18 18 -39 -7
-45 -18 -4 -91 -3 -182 4 -4 1 -5 9 -2 18 4 10 4 15 1 11 -4 -3 -16 3 -28 15
-23 23 -38 8 -17 -17 6 -8 7 -16 3 -19 -4 -3 -58 -8 -119 -12 -62 -4 -122 -12
-135 -19 -26 -12 -92 -9 -359 21 -120 14 -146 19 -115 24 22 3 32 7 23 8 -11
0 -18 9 -18 22 0 13 4 18 12 13 7 -5 8 -3 3 6 -4 7 -2 16 6 21 11 7 10 9 -3 9
-13 0 -18 8 -18 28 0 15 -5 33 -12 40 -9 9 -9 12 2 12 11 1 9 5 -5 16 -32 25
-59 38 -51 25 4 -6 3 -11 -3 -11 -6 0 -8 -8 -5 -17 5 -14 4 -15 -4 -4 -6 8 -8
25 -6 38 3 14 0 23 -8 23 -9 0 -8 3 2 10 12 8 11 10 -8 10 -19 0 -21 3 -11 18
17 27 4 65 -26 79 l-26 12 2 -177 c2 -158 0 -177 -15 -180 -15 -3 -16 29 -14
405 l3 408 65 5 c36 3 152 7 258 8 159 3 192 1 192 -11z m235 -12 c73 -9 167
-24 171 -27 1 -2 6 -33 11 -69 l9 -66 -50 39 c-28 21 -57 38 -63 38 -7 0 -13
4 -13 9 0 6 -8 9 -17 9 -18 -1 -153 69 -153 79 0 2 12 2 28 -1 15 -3 50 -8 77
-11z m1075 -14 c0 -10 -6 -24 -14 -30 -19 -16 -30 13 -14 39 14 22 28 17 28
-9z m339 -46 c26 -30 31 -44 30 -83 0 -26 -5 -56 -10 -67 -9 -19 -9 -18 -5 3
2 12 1 22 -3 22 -5 0 -13 15 -19 33 l-11 32 3 -40 c1 -22 -2 -49 -7 -60 -6
-11 -13 -26 -17 -34 -3 -8 -15 -20 -27 -28 -19 -13 -22 -11 -41 19 l-21 32 30
18 c17 10 29 26 29 38 0 20 -1 21 -29 4 -20 -12 -37 -15 -57 -9 l-29 8 39 9
c49 11 50 12 36 37 -6 13 -16 19 -23 15 -7 -4 -9 -4 -5 1 4 4 2 15 -5 23 -10
13 -8 14 16 8 50 -12 23 27 -36 52 -37 16 -69 15 -93 -3 -10 -8 -30 -15 -43
-15 -19 0 -13 6 25 26 46 25 52 25 104 14 30 -7 63 -17 73 -22 15 -8 17 -5 13
17 l-5 25 28 -20 c16 -11 43 -36 60 -55z m-1619 25 c10 -24 17 -29 33 -24 11
3 23 1 27 -5 5 -8 14 -9 33 -2 64 25 185 -26 228 -95 21 -34 29 -41 29 -26 0
5 -17 27 -38 50 -46 50 -41 53 17 12 37 -27 86 -89 77 -97 -2 -2 -15 1 -30 7
-18 6 -25 6 -21 0 3 -6 13 -10 21 -10 8 0 14 -4 14 -10 0 -5 7 -10 15 -10 11
0 15 -11 14 -47 -2 -45 -2 -46 -8 -13 -7 42 -17 30 -20 -24 -2 -36 -20 -87
-21 -59 0 7 -6 10 -12 8 -10 -4 -14 16 -16 77 -2 45 -4 84 -6 85 -1 2 -16 5
-32 7 -16 2 -22 1 -14 -1 29 -10 40 -26 40 -57 0 -36 -15 -56 -42 -56 -10 0
-23 -9 -30 -20 -7 -11 -19 -20 -26 -20 -18 0 -42 25 -42 44 0 9 -6 13 -14 10
-10 -4 -16 4 -21 25 -4 20 -11 28 -20 25 -15 -6 -11 -52 8 -89 9 -17 8 -18 -5
-8 -12 11 -17 7 -28 -23 -12 -29 -15 -32 -21 -17 -14 34 -10 53 11 53 13 0 20
7 20 20 0 11 -4 20 -10 20 -5 0 -9 -5 -7 -11 1 -6 -4 -14 -10 -16 -9 -3 -13 6
-13 26 0 24 -4 31 -20 31 -10 0 -23 -6 -27 -12 -4 -7 -16 -19 -26 -27 -15 -12
-17 -12 -11 3 4 12 0 16 -15 16 -24 0 -28 15 -7 23 8 3 17 -1 20 -9 5 -13 8
-13 28 0 12 9 30 16 39 16 26 0 30 84 6 129 -32 61 -40 65 -79 47 -69 -33 -85
-110 -48 -227 21 -66 47 -116 37 -72 -6 25 8 41 16 20 3 -7 -1 -24 -9 -38 -7
-13 -13 -18 -14 -10 0 7 -6 11 -14 8 -19 -8 -33 34 -46 138 -9 72 -8 106 6
155 2 9 25 22 51 30 29 9 41 16 30 18 -10 2 -31 -1 -46 -6 -25 -9 -30 -7 -39
13 -10 21 -7 25 26 39 49 20 48 20 62 -14z m97 -6 c-3 -3 -12 -4 -19 -1 -8 3
-5 6 6 6 11 1 17 -2 13 -5z m342 -16 c1 7 6 10 11 7 6 -3 10 -27 9 -53 -1 -38
-2 -42 -9 -22 -7 23 -8 23 -10 -10 -2 -33 -3 -33 -10 -10 -11 36 -11 122 0 95
5 -11 9 -14 9 -7z m46 3 c3 -5 1 -12 -5 -16 -5 -3 -10 1 -10 9 0 18 6 21 15 7z
m829 -14 c15 -11 11 -12 -26 -8 -34 3 -39 6 -23 12 28 11 29 11 49 -4z m437
-6 c-6 -10 -8 -21 -6 -25 3 -3 0 -2 -6 3 -13 11 -5 41 11 41 7 0 8 -6 1 -19z
m107 -58 l-1 -68 -7 65 c-4 36 -7 57 -8 48 -2 -21 -22 -24 -22 -4 0 13 13 23
33 25 4 1 6 -29 5 -66z m-1263 32 c-2 -37 -15 -43 -15 -7 0 18 4 32 8 32 4 0
7 -11 7 -25z m22 -7 c-3 -7 -5 -2 -5 12 0 14 2 19 5 13 2 -7 2 -19 0 -25z
m-135 0 c-7 -7 -12 -8 -12 -2 0 14 12 26 19 19 2 -3 -1 -11 -7 -17z m-458 -13
c-4 -8 -10 -15 -15 -15 -4 0 -6 7 -3 15 4 8 10 15 15 15 4 0 6 -7 3 -15z
m1161 -50 c-46 -53 -55 -61 -55 -50 0 7 91 105 97 105 3 0 -17 -25 -42 -55z
m654 5 c0 -9 -4 -8 -9 5 -5 11 -9 27 -9 35 0 9 4 8 9 -5 5 -11 9 -27 9 -35z
m-397 -32 c33 -47 12 -31 -33 25 -27 32 -32 42 -15 27 15 -14 37 -37 48 -52z
m-942 20 c0 -9 -4 -20 -10 -23 -6 -4 -10 9 -10 32 0 28 3 34 10 23 5 -8 10
-23 10 -32z m1177 -20 c-7 -77 -24 -128 -43 -128 -10 0 -9 8 6 33 10 17 22 60
26 95 3 34 9 62 12 62 3 0 2 -28 -1 -62z m907 42 c25 -10 46 -25 46 -31 0 -8
-4 -9 -13 0 -8 6 -17 8 -20 4 -4 -3 -18 4 -32 17 -14 13 -28 20 -32 15 -5 -4
-2 -10 5 -12 22 -8 42 -34 36 -45 -5 -7 -2 -8 5 -3 12 7 61 -30 61 -47 0 -17
-36 -7 -49 14 l-14 22 -18 -23 c-11 -13 -19 -18 -19 -12 0 6 -5 11 -11 11 -6
0 -9 -7 -5 -15 4 -10 -1 -15 -15 -15 -15 0 -19 5 -15 15 3 9 0 15 -9 15 -8 0
-15 7 -15 15 0 8 5 15 10 15 6 0 10 9 10 20 0 11 7 20 15 20 8 0 15 5 15 10 0
6 -5 10 -11 10 -5 0 -7 5 -4 10 9 15 28 12 79 -10z m111 1 c3 -5 1 -12 -5 -16
-5 -3 -10 1 -10 9 0 18 6 21 15 7z m-1310 -21 c3 -5 1 -10 -4 -10 -6 0 -11 5
-11 10 0 6 2 10 4 10 3 0 8 -4 11 -10z m1265 -27 c0 -24 -3 -33 -9 -25 -7 12
-4 62 5 62 2 0 4 -17 4 -37z m-2665 17 c-3 -6 1 -7 9 -4 23 9 19 -9 -7 -34
l-23 -22 4 35 c2 19 8 35 14 35 5 0 6 -4 3 -10z m633 -91 c-10 -6 -15 3 -21
33 -8 35 -6 44 10 55 17 13 18 11 21 -33 2 -31 -1 -50 -10 -55z m1132 66 c0
-12 -19 -12 -23 0 -4 9 -1 12 9 8 7 -3 14 -7 14 -8z m-1922 -67 c-1 -71 -1
-72 -8 -23 -4 28 -8 41 -9 30 -2 -12 -5 -15 -8 -7 -5 12 15 72 23 72 2 0 3
-33 2 -72z m2526 47 c16 -12 17 -15 4 -15 -8 0 -21 7 -28 15 -16 19 -1 19 24
0z m-1437 -17 c-3 -8 -6 -5 -6 6 -1 11 2 17 5 13 3 -3 4 -12 1 -19z m933 -40
c-1 -128 -27 -412 -38 -416 -8 -2 -12 -28 -12 -68 l0 -64 -32 0 c-22 0 -41 9
-58 26 -13 14 -35 30 -49 36 l-25 9 29 19 c32 21 75 85 75 113 0 9 5 17 11 17
6 0 9 7 6 15 -4 8 -2 17 3 20 5 3 9 13 10 23 0 9 3 38 6 64 9 73 -10 115 -62
141 -71 34 -54 65 51 95 39 11 73 21 78 21 4 1 7 -23 7 -51z m-1993 10 c-3 -7
-5 -2 -5 12 0 14 2 19 5 13 2 -7 2 -19 0 -25z m1588 1 c9 -17 15 -40 13 -52
-2 -14 -8 -4 -19 31 -18 59 -16 65 6 21z m-304 -25 c-12 -34 -17 -40 -19 -24
-3 18 21 70 32 70 2 0 -4 -21 -13 -46z m-1483 -4 c-1 -22 -5 -37 -9 -33 -7 8
0 73 8 73 2 0 3 -18 1 -40z m2810 0 c72 -42 112 -77 112 -97 0 -7 -3 -13 -6
-13 -14 0 -74 42 -74 51 0 6 -4 8 -8 5 -5 -3 -31 17 -57 44 -27 28 -46 50 -42
50 5 0 38 -18 75 -40z m112 30 c0 -5 -5 -10 -11 -10 -5 0 -7 5 -4 10 3 6 8 10
11 10 2 0 4 -4 4 -10z m580 -10 c0 -14 -6 -20 -22 -19 -22 0 -22 1 -3 9 16 7
13 9 -16 9 -24 1 -39 -4 -43 -14 -3 -8 -11 -15 -18 -15 -9 0 -8 3 2 10 12 8
10 10 -10 11 -14 1 -2 7 30 14 77 18 80 18 80 -5z m-3538 -52 c-6 -6 -7 0 -4
19 5 21 7 23 10 9 2 -10 0 -22 -6 -28z m235 20 c-3 -8 -6 -5 -6 6 -1 11 2 17
5 13 3 -3 4 -12 1 -19z m783 -63 c0 -53 -11 -72 -24 -39 -8 21 -8 79 1 87 16
17 23 3 23 -48z m-1043 8 c-3 -10 -5 -4 -5 12 0 17 2 24 5 18 2 -7 2 -21 0
-30z m300 15 c-3 -8 -6 -5 -6 6 -1 11 2 17 5 13 3 -3 4 -12 1 -19z m1827 -9
c27 -13 51 -66 43 -96 -4 -14 -5 -13 -6 4 0 12 -6 25 -11 28 -6 4 -8 10 -5 15
9 15 -15 22 -30 10 -10 -8 -15 -9 -15 -2 0 6 5 14 12 18 8 5 -1 12 -23 20 -26
10 -29 13 -12 13 12 1 33 -4 47 -10z m-838 -8 c-6 -9 -56 -22 -56 -14 0 4 40
21 53 22 5 1 6 -3 3 -8z m701 -31 c-39 -46 -66 -119 -75 -205 -5 -57 -6 -58
-13 -25 -8 36 11 141 32 183 14 28 70 87 82 87 5 0 -7 -18 -26 -40z m-537 -53
c33 -67 47 -148 34 -194 -6 -23 -9 -14 -15 48 -6 77 -41 172 -77 213 -16 18
-16 18 5 7 12 -6 36 -39 53 -74z m-680 38 c0 -2 -3 -10 -6 -19 -10 -25 -21
-19 -26 13 -4 26 -2 29 14 20 10 -5 18 -11 18 -14z m2260 10 c10 -13 9 -15 -8
-15 -22 0 -36 13 -25 24 10 10 20 7 33 -9z m-2309 -28 c-10 -9 -11 -8 -5 6 3
10 9 15 12 12 3 -3 0 -11 -7 -18z m-541 -7 c0 -5 -5 -10 -11 -10 -5 0 -7 5 -4
10 3 6 8 10 11 10 2 0 4 -4 4 -10z m1096 -12 c10 -12 13 -18 6 -14 -8 5 -11 1
-8 -16 3 -13 5 -25 5 -28 1 -3 5 1 10 9 5 8 8 -8 7 -44 -1 -39 3 -60 12 -62 6
-3 12 -18 12 -34 0 -30 -13 -38 -26 -17 -4 7 -3 8 4 4 7 -4 12 -2 12 3 0 10
-14 15 -33 12 -5 -1 -6 3 -3 8 4 5 1 11 -5 13 -7 2 -7 12 0 32 13 32 7 48 -14
39 -8 -3 -15 0 -15 7 0 6 4 8 10 5 6 -4 9 5 8 19 -1 15 -6 26 -10 26 -4 0 -8
14 -8 30 0 36 10 38 36 8z m872 -6 c2 -12 -4 -29 -12 -38 -17 -17 -19 -27 -17
-94 0 -27 -2 -38 -7 -28 -6 15 -9 14 -19 -8 -10 -23 -10 -25 4 -19 14 5 14 2
-2 -15 -11 -12 -22 -17 -28 -11 -11 11 -5 57 8 54 6 -1 10 9 10 22 0 15 -5 21
-15 18 -11 -3 -10 -1 3 10 10 9 16 24 13 38 -2 15 5 33 18 48 11 13 15 21 8
17 -11 -7 -11 -4 0 13 16 25 32 22 36 -7z m649 -33 c8 -7 21 -26 30 -43 13
-27 10 -25 -22 12 -30 34 -43 42 -71 42 -19 0 -49 -7 -67 -17 -30 -15 -31 -15
-18 0 29 35 109 38 148 6z m416 2 c-2 -10 0 -35 5 -55 6 -20 7 -36 2 -36 -10
0 -23 87 -15 100 10 16 14 12 8 -9z m-142 -22 c16 -17 29 -37 29 -45 0 -7 15
-30 33 -50 22 -26 26 -34 12 -27 -11 6 -40 34 -63 62 -24 28 -50 51 -58 51
-16 0 -16 2 -8 24 9 23 23 20 55 -15z m489 -36 l0 -63 -77 -1 c-43 -1 -109 -3
-146 -4 -62 -2 -69 0 -87 23 -24 29 -25 42 -6 42 8 0 16 6 19 14 7 17 174 48
285 52 8 1 12 -18 12 -63z m-550 53 c0 -3 -4 -8 -10 -11 -5 -3 -10 -1 -10 4 0
6 5 11 10 11 6 0 10 -2 10 -4z m-2371 -57 c37 -45 37 -55 0 -35 -14 7 -31 13
-39 14 -44 5 -81 16 -91 28 -8 10 -5 14 18 19 15 4 33 8 38 10 27 9 43 1 74
-36z m2098 30 c-11 -7 -23 -7 -28 -2 -5 5 3 9 19 11 24 1 25 0 9 -9z m-2011
-15 c13 -3 24 -10 24 -16 0 -5 5 -6 10 -3 6 3 10 0 11 -7 0 -11 2 -11 6 0 3 9
10 4 19 -14 12 -22 12 -29 2 -35 -16 -10 -58 -1 -77 17 -12 11 -12 15 0 30 9
11 9 15 2 10 -15 -8 -53 10 -53 25 0 6 7 8 16 5 9 -3 27 -9 40 -12z m1418 -9
c-7 -16 -24 -21 -24 -6 0 8 7 13 27 20 1 1 0 -6 -3 -14z m-824 -25 c0 -5 -2
-10 -4 -10 -3 0 -8 5 -11 10 -3 6 -1 10 4 10 6 0 11 -4 11 -10z m1287 -32 c-3
-8 -6 -5 -6 6 -1 11 2 17 5 13 3 -3 4 -12 1 -19z m637 -68 c4 -21 3 -31 -3
-25 -5 6 -12 33 -15 60 -6 52 5 31 18 -35z m-544 49 c0 -11 -4 -18 -10 -14 -5
3 -7 12 -3 20 7 21 13 19 13 -6z m268 14 c-10 -2 -26 -2 -35 0 -10 3 -2 5 17
5 19 0 27 -2 18 -5z m-463 -33 c3 -11 21 -17 53 -19 26 -2 57 -4 69 -4 17 -2
19 -5 12 -19 -7 -14 -6 -18 6 -18 9 0 19 9 23 20 7 19 9 19 27 6 20 -15 20
-15 -1 -16 -12 0 -21 -7 -21 -15 0 -17 13 -20 22 -6 5 9 24 8 87 -5 15 -3 37
0 49 6 19 11 21 10 16 -4 -6 -14 -3 -16 14 -11 18 6 20 4 15 -13 -4 -12 -2
-24 5 -28 9 -5 10 -2 6 11 -6 14 -3 16 12 12 11 -3 22 0 24 6 2 7 10 7 23 2
10 -4 25 -7 32 -6 7 1 15 -5 18 -14 7 -18 64 -44 104 -47 30 -2 31 -28 1 -28
-9 0 -90 -7 -181 -15 -91 -9 -183 -13 -205 -10 -100 15 -102 15 -60 0 l40 -13
-33 -1 c-18 -1 -41 4 -51 11 -15 9 -28 9 -56 1 -60 -19 -67 -11 -64 74 2 55
-2 77 -12 84 -14 9 11 7 89 -7 25 -5 32 -3 32 10 0 19 -16 21 -23 4 -4 -10 -7
-10 -15 0 -5 7 -22 14 -38 15 -16 1 -35 8 -42 15 -7 6 -22 12 -32 12 -23 0
-35 16 -18 23 26 10 68 2 73 -13z m270 10 c-3 -5 -12 -10 -18 -10 -7 0 -6 4 3
10 19 12 23 12 15 0z m-415 -4 c0 -3 -4 -8 -10 -11 -5 -3 -10 -1 -10 4 0 6 5
11 10 11 6 0 10 -2 10 -4z m-1303 -73 c-2 -16 -4 -5 -4 22 0 28 2 40 4 28 2
-13 2 -35 0 -50z m1718 47 c3 -5 1 -10 -4 -10 -6 0 -11 5 -11 10 0 6 2 10 4
10 3 0 8 -4 11 -10z m-2775 -10 c0 -5 -2 -10 -4 -10 -3 0 -8 5 -11 10 -3 6 -1
10 4 10 6 0 11 -4 11 -10z m2396 -5 c20 -8 41 -12 47 -8 6 3 7 1 3 -5 -10 -17
-106 -16 -106 1 0 13 9 27 17 27 2 0 20 -7 39 -15z m-788 -15 c-7 -10 -14 -17
-17 -15 -4 4 18 35 25 35 2 0 -1 -9 -8 -20z m1946 -2 c13 -49 8 -54 -37 -53
-51 2 -72 13 -79 42 -5 19 -1 22 26 26 74 9 83 8 90 -15z m-2224 2 c0 -5 -8
-10 -17 -10 -15 0 -16 2 -3 10 19 12 20 12 20 0z m751 -8 c-7 -2 -18 1 -23 6
-8 8 -4 9 13 5 13 -4 18 -8 10 -11z m-737 -16 c-3 -9 -10 -16 -15 -16 -5 0 -4
9 3 20 14 22 21 20 12 -4z m2051 8 c-8 -9 -22 -13 -30 -10 -26 10 -16 26 16
26 28 0 29 -1 14 -16z m-1595 -9 c0 -8 -4 -15 -10 -15 -5 0 -7 7 -4 15 4 8 8
15 10 15 2 0 4 -7 4 -15z m266 -12 c-7 -7 -26 7 -26 19 0 6 6 6 15 -2 9 -7 13
-15 11 -17z m874 17 c12 -7 10 -9 -8 -7 -12 0 -22 5 -22 9 0 11 12 10 30 -2z
m40 0 c0 -5 -5 -10 -11 -10 -5 0 -7 5 -4 10 3 6 8 10 11 10 2 0 4 -4 4 -10z
m86 -7 c-9 -10 -55 -12 -61 -3 -3 5 9 9 30 8 19 -1 33 -3 31 -5z m44 -13 c0
-5 -7 -7 -15 -4 -8 4 -15 8 -15 10 0 2 7 4 15 4 8 0 15 -4 15 -10z m-1594 -30
c27 -19 44 -39 44 -50 0 -24 -16 -26 -28 -3 -9 16 -11 16 -27 0 -9 -9 -32 -17
-51 -17 -31 0 -34 3 -34 30 0 26 29 70 46 70 3 0 25 -14 50 -30z m1734 -3 c0
-4 -5 -5 -12 -1 -7 4 -8 3 -4 -4 4 -6 2 -21 -5 -33 -10 -19 -13 -20 -26 -6
-13 13 -14 20 -2 45 11 25 16 28 31 18 10 -6 18 -14 18 -19z m205 3 c16 -6 12
-8 -17 -12 -20 -2 -34 0 -32 4 3 4 -11 8 -30 8 -19 0 -37 4 -40 8 -6 10 88 3
119 -8z m-2414 -42 c8 -15 8 -18 0 -14 -6 4 -16 16 -22 28 -8 15 -8 18 0 14 6
-4 16 -16 22 -28z m1387 -280 l-3 -313 -158 0 c-211 0 -197 -18 -197 250 0
252 -2 248 119 253 l81 4 0 59 0 59 80 0 80 0 -2 -312z m1075 295 c-7 -2 -21
-2 -30 0 -10 3 -4 5 12 5 17 0 24 -2 18 -5z m-144 -7 c-9 -9 -78 -13 -73 -5 3
5 21 9 41 9 20 0 34 -2 32 -4z m-2499 -409 c0 -306 -1 -314 -21 -333 -18 -17
-41 -19 -175 -22 l-154 -4 0 66 0 66 95 0 c78 0 95 3 95 15 0 12 -14 15 -66
15 -63 0 -101 11 -116 34 -4 6 -8 106 -8 223 l0 212 26 20 c24 19 40 21 175
21 l149 0 0 -313z m361 297 l30 -15 -1 -112 c-1 -62 -1 -176 -1 -254 l1 -143
100 0 100 0 0 -65 0 -65 80 0 c124 0 120 10 120 -270 l0 -230 -80 0 -80 0 0
191 c0 176 -1 190 -17 187 -16 -3 -18 -21 -21 -191 l-2 -187 -75 0 -75 0 -2
253 -3 252 -80 3 c-116 4 -115 2 -115 189 0 146 -1 153 -20 153 -19 0 -20 -7
-20 -120 0 -137 3 -134 -101 -128 l-54 3 -3 283 -2 282 145 0 c113 0 153 -4
176 -16z m389 1 l30 -16 0 -240 0 -240 -156 3 c-199 4 -194 0 -194 163 0 111
1 114 26 134 22 17 41 21 100 21 l74 0 0 30 c0 23 -4 30 -20 30 -11 0 -20 -7
-20 -15 0 -12 -16 -15 -80 -15 l-80 0 0 51 c0 58 12 87 43 99 39 16 244 12
277 -5z m230 1 c0 -12 6 -12 38 0 62 22 122 14 144 -20 4 -6 8 -116 8 -243 l0
-233 -75 0 -75 0 0 190 c0 183 -1 190 -20 190 -19 0 -20 -7 -20 -190 l0 -191
-77 3 -78 3 -3 240 c-1 132 0 245 2 252 8 19 156 18 156 -1z m1720 -274 c0
-241 -2 -279 -15 -279 -8 0 -15 7 -15 16 0 9 -5 23 -11 31 -8 11 -9 4 -5 -27
5 -36 3 -43 -15 -48 -25 -8 -39 3 -19 15 11 7 11 10 2 10 -10 0 -11 14 -6 61
7 65 -6 123 -38 170 -9 14 -15 29 -11 32 3 4 -2 18 -11 32 -9 14 -14 30 -11
36 4 5 1 8 -6 7 -8 -2 -21 12 -31 31 -9 19 -31 41 -47 49 -20 9 -31 22 -32 36
0 20 -1 20 -9 1 -7 -19 -8 -19 -18 5 -5 14 -18 32 -28 40 -18 14 -18 14 -1 -6
20 -24 23 -41 3 -25 -18 15 -155 22 -222 11 -30 -5 -61 -16 -70 -25 -8 -8 -21
-15 -28 -15 -6 0 -20 -15 -31 -32 -13 -24 -15 -30 -3 -21 8 7 19 9 23 5 5 -4
4 -1 0 7 -6 11 -4 13 8 8 9 -3 19 -1 23 5 5 7 2 8 -7 3 -8 -5 -11 -4 -6 1 5 5
14 9 20 9 7 1 25 7 40 15 26 13 30 12 39 -3 5 -10 13 -15 18 -12 5 3 14 -3 20
-14 8 -16 7 -22 -10 -31 -10 -6 -17 -17 -14 -24 3 -8 -5 -22 -18 -31 l-23 -17
28 6 c22 5 27 3 27 -12 0 -14 -6 -19 -24 -17 -18 2 -23 -1 -19 -12 7 -18 -45
-73 -63 -66 -8 3 -20 1 -27 -5 -6 -5 -31 -12 -54 -14 -33 -3 -43 0 -44 12 -1
8 -5 0 -9 -18 -5 -21 -3 -47 7 -74 8 -23 10 -44 5 -47 -5 -3 -11 -14 -15 -23
-5 -14 -1 -18 14 -18 12 0 19 -5 16 -12 -2 -7 2 -25 10 -40 13 -27 13 -28 -12
-28 -15 0 -24 4 -20 10 3 6 1 10 -4 10 -6 0 -11 -5 -11 -10 0 -10 -61 -7 -80
5 -5 3 -10 13 -10 21 0 8 -4 14 -8 14 -4 0 -8 9 -8 20 0 11 4 20 8 20 4 0 8 7
8 15 0 13 -4 14 -20 5 -12 -6 -20 -21 -20 -35 0 -24 -2 -25 -80 -25 -57 0 -80
4 -81 13 0 10 -2 10 -6 0 -2 -7 -19 -12 -36 -12 -31 2 -31 2 -4 6 l27 4 0 233
0 232 328 28 c180 16 406 36 502 46 96 10 190 18 208 19 l32 1 0 -278z m-3590
257 c36 -6 76 -10 90 -10 20 1 22 -1 10 -9 -19 -12 -4 -13 18 -1 9 5 44 6 76
2 l59 -6 -53 -59 c-50 -54 -160 -135 -270 -198 l-46 -26 -1 159 -2 159 27 0
c15 0 56 -5 92 -11z m460 -49 c0 -5 -7 -10 -15 -10 -8 0 -15 5 -15 10 0 6 7
10 15 10 8 0 15 -4 15 -10z m-65 -49 c16 -9 34 -30 40 -47 5 -16 14 -32 18
-35 5 -4 6 -59 2 -122 l-7 -116 -79 -28 c-75 -27 -129 -62 -129 -84 0 -6 5 -7
10 -4 6 3 10 1 10 -5 0 -5 16 -18 36 -27 29 -15 38 -15 56 -4 21 13 21 12 14
-45 -8 -73 -34 -124 -95 -189 -26 -27 -79 -93 -118 -146 -40 -52 -78 -101 -86
-108 -19 -15 -113 -16 -150 -2 -32 12 -29 -11 -33 301 -3 218 1 293 15 273 10
-15 41 -24 104 -30 54 -5 59 -4 55 13 -2 12 -11 18 -22 16 -10 -2 -30 -1 -44
3 -23 6 -24 7 -6 20 26 19 28 19 63 -11 24 -20 35 -23 45 -15 16 14 26 4 26
-26 0 -36 32 -26 44 14 18 56 15 62 -37 108 -29 25 -74 56 -100 70 l-49 24 41
20 c22 12 42 25 46 31 3 6 39 34 78 64 40 29 81 63 91 75 11 11 27 21 37 21
10 0 21 5 24 11 9 13 60 3 100 -20z m2804 13 c69 -16 71 -17 55 -35 -9 -10
-32 -21 -50 -25 -19 -3 -31 -10 -28 -15 3 -5 1 -9 -5 -9 -5 0 -13 5 -17 11 -4
8 -9 7 -15 -2 -7 -11 -9 -10 -9 4 0 9 -7 17 -15 17 -8 0 -15 5 -15 10 0 6 0
13 0 18 0 4 21 10 47 13 l48 6 -48 1 c-29 1 -46 6 -42 12 8 13 10 13 94 -6z
m-3209 -275 c24 -9 60 -50 43 -48 -28 3 -107 36 -105 43 2 5 -2 13 -10 18 -16
11 33 3 72 -13z m3150 13 c0 -11 -22 -32 -32 -32 -5 0 -4 9 2 20 11 20 30 28
30 12z m-155 -43 c0 -36 12 -47 56 -48 15 -1 31 -7 37 -13 8 -10 0 -12 -38
-10 -42 3 -49 1 -55 -17 -3 -12 -13 -21 -21 -21 -16 0 -19 -16 -4 -25 5 -3 7
-13 4 -23 -5 -14 -4 -14 4 -2 6 8 9 17 6 21 -2 4 6 9 19 13 14 4 26 0 35 -12
7 -9 19 -15 25 -14 7 2 9 0 4 -4 -12 -13 -47 -15 -44 -3 1 6 -4 14 -12 17 -10
3 -13 -3 -9 -27 2 -17 1 -31 -4 -31 -4 0 -17 -9 -28 -20 -16 -16 -20 -17 -20
-5 0 8 -9 15 -20 15 -13 0 -24 10 -31 28 -12 30 -18 102 -7 96 3 -2 8 -1 11 3
2 5 2 2 1 -4 -5 -18 31 -16 45 1 7 8 15 40 18 71 6 61 28 72 28 14z m511 -24
c8 -54 -18 -114 -58 -133 -20 -9 -25 -17 -20 -34 5 -21 6 -21 14 -2 5 12 6 3
3 -26 -8 -66 -8 -64 0 -210 4 -74 14 -151 21 -170 12 -30 12 -32 0 -17 -7 9
-23 47 -36 83 -18 56 -21 77 -14 133 7 64 6 122 -2 130 -6 6 -54 -41 -50 -48
2 -3 -11 -7 -29 -8 -40 -2 -40 11 -2 57 15 18 35 46 44 63 21 42 38 57 62 57
16 0 21 6 21 25 0 13 8 28 18 34 16 9 16 11 -2 42 -17 28 -17 32 -3 26 20 -8
23 14 5 46 -10 20 -10 21 5 9 9 -8 19 -33 23 -57z m-240 10 c-5 -21 -11 -25
-27 -20 -15 5 -25 1 -36 -14 -8 -12 -19 -19 -24 -15 -5 3 -16 1 -23 -5 -10 -8
-17 -7 -27 5 -8 10 -30 24 -49 33 -19 9 -36 23 -38 30 -2 11 3 10 20 -3 43
-30 108 -53 108 -37 0 6 -4 11 -10 11 -5 0 -10 5 -10 10 0 6 6 10 13 10 7 0
31 9 53 19 44 22 60 15 50 -24z m-2811 -94 l-27 -26 21 35 c12 19 22 44 22 55
1 12 4 8 6 -9 4 -22 -2 -35 -22 -55z m2485 75 c0 -3 -4 -8 -10 -11 -5 -3 -10
-1 -10 4 0 6 5 11 10 11 6 0 10 -2 10 -4z m285 -36 c3 -5 2 -10 -4 -10 -5 0
-13 5 -16 10 -3 6 -2 10 4 10 5 0 13 -4 16 -10z m-2787 -11 c-2 -6 -7 -10 -11
-10 -4 1 -17 1 -29 2 -22 1 -22 1 2 9 36 11 42 11 38 -1z m2687 -19 c-3 -5
-11 -10 -16 -10 -6 0 -7 5 -4 10 3 6 11 10 16 10 6 0 7 -4 4 -10z m-2763 -35
c0 -14 -29 -31 -38 -22 -9 8 16 39 28 35 5 -2 10 -8 10 -13z m49 -32 c-12 -20
-14 -14 -5 12 4 9 9 14 11 11 3 -2 0 -13 -6 -23z m1984 8 c-3 -6 6 -6 24 -1
29 8 41 5 41 -11 0 -4 -64 -8 -142 -9 -193 -3 -208 -5 -219 -21 -7 -11 -9 -9
-9 9 0 17 -6 22 -27 21 -27 0 -27 -1 -5 -9 12 -5 22 -12 22 -15 0 -4 -3 -4 -7
-2 -29 15 -62 19 -172 17 -82 -1 -135 -6 -160 -16 -33 -13 -41 -13 -74 1 -20
8 -52 15 -72 15 -24 0 -35 4 -35 15 0 13 53 15 421 15 258 0 418 -4 414 -9z
m712 -7 c-3 -3 -12 -4 -19 -1 -8 3 -5 6 6 6 11 1 17 -2 13 -5z m473 -244 c-12
-16 -34 -66 -50 -111 -32 -88 -36 -96 -46 -86 -9 8 -23 152 -23 236 -1 54 2
67 22 85 18 17 28 20 40 12 24 -15 66 35 69 82 1 20 4 -14 5 -76 3 -101 2
-116 -17 -142z m-3062 13 c18 -35 30 -63 27 -63 -3 0 -28 12 -55 26 -41 22
-49 30 -47 52 0 15 -2 50 -6 77 -6 35 -5 46 2 35 6 -8 11 -29 11 -47 0 -17 5
-35 10 -38 12 -7 12 -4 0 55 -6 30 -5 58 3 85 l12 40 5 -80 c4 -64 12 -92 38
-142z m582 167 l0 -50 100 0 101 0 -3 -62 -3 -63 -97 -3 -98 -3 0 -109 c0
-103 1 -110 20 -110 19 0 20 7 20 95 l0 95 80 0 80 0 0 -129 c0 -115 -2 -131
-21 -155 -20 -26 -21 -26 -159 -26 l-139 0 -21 27 c-20 25 -21 37 -18 170 l3
142 -30 3 c-29 3 -30 4 -33 66 l-3 62 31 0 c29 0 30 1 30 50 l0 50 80 0 80 0
0 -50z m2474 35 c-4 -8 -11 -15 -16 -15 -6 0 -5 6 2 15 7 8 14 15 16 15 2 0 1
-7 -2 -15z m-524 -27 c0 -10 3 -9 9 1 7 11 13 11 32 0 13 -7 36 -12 51 -11 34
3 29 -18 -9 -35 -36 -17 -48 -16 -33 2 15 18 6 34 -18 30 -84 -17 -86 -21 -49
-86 l22 -40 -28 -25 c-30 -26 -50 -24 -41 4 5 13 4 14 -4 3 -8 -11 -12 -10
-21 7 -17 32 -13 99 7 123 27 33 82 51 82 27z m-2657 -118 c-6 -14 -14 -36
-16 -50 -2 -14 -9 -36 -14 -50 -19 -46 -9 79 13 148 l19 63 5 -43 c3 -24 0
-54 -7 -68z m2297 85 c0 -25 0 -25 95 -25 l95 0 0 -65 0 -65 -95 0 -95 0 0
-111 c0 -100 2 -110 18 -107 14 3 17 17 20 96 l3 92 74 0 75 0 0 -139 c0 -178
7 -171 -177 -171 -180 0 -173 -8 -173 189 0 140 -1 149 -20 154 -17 4 -20 14
-20 66 0 54 2 61 20 61 15 0 20 7 20 25 0 25 1 25 80 25 79 0 80 0 80 -25z
m-630 -15 c18 -18 20 -33 20 -155 l0 -135 -100 0 -100 0 0 -35 c0 -28 4 -35
20 -35 13 0 20 7 20 20 0 19 5 21 78 18 l77 -3 3 -51 c2 -39 -2 -56 -18 -77
-21 -27 -21 -27 -160 -27 -189 0 -180 -13 -180 250 0 263 -9 250 181 250 126
0 141 -2 159 -20z m410 -40 l0 -59 -97 -3 c-66 -2 -98 -7 -101 -15 -3 -10 21
-13 97 -13 l101 0 0 -65 0 -65 -100 0 -100 0 0 -110 0 -110 -80 0 -80 0 0 224
c0 211 1 225 21 250 l20 26 160 0 159 0 0 -60z m800 12 c0 -7 -4 -11 -9 -8 -5
4 -7 -3 -4 -14 3 -11 9 -17 14 -14 5 3 9 2 9 -3 0 -4 -15 -13 -32 -19 -18 -6
-42 -15 -53 -20 -17 -7 -16 -3 7 24 15 18 30 49 34 69 6 34 8 35 20 18 8 -10
14 -25 14 -33z m280 38 c0 -5 -8 -10 -17 -10 -15 0 -16 2 -3 10 19 12 20 12
20 0z m-2985 -70 c-10 -11 -22 -17 -26 -14 -5 3 -9 0 -9 -5 0 -6 -5 -11 -11
-11 -6 0 -8 7 -5 16 3 8 2 12 -4 9 -6 -3 -10 1 -10 9 0 12 11 16 42 16 40 0
41 0 23 -20z m255 -60 l0 -80 30 0 30 0 0 -130 0 -130 -80 0 c-44 0 -80 3 -80
8 0 4 9 31 20 60 11 29 20 56 20 61 0 16 -58 82 -64 72 -4 -5 2 -14 11 -20 40
-23 1 -8 -137 54 -144 65 -167 72 -186 58 -5 -5 -3 -1 6 7 8 8 14 24 12 35 -2
12 2 32 7 45 9 22 10 19 9 -19 l-2 -44 107 -48 c60 -26 123 -50 140 -54 l32
-6 -25 15 c-14 8 -28 12 -32 10 -4 -2 -23 3 -42 13 -26 12 -40 28 -52 60 l-17
44 33 34 34 35 113 0 113 0 0 -80z m2538 25 c-11 -25 -28 -34 -28 -15 0 13 22
39 32 40 4 0 2 -11 -4 -25z m-98 -33 c0 -11 -10 -27 -22 -38 -21 -19 -21 -19
-13 1 4 11 7 28 7 38 0 9 6 17 14 17 8 0 14 -8 14 -18z m-252 -66 c-5 -32 -27
-31 -23 1 2 18 -5 37 -19 53 -16 19 -13 18 12 -5 20 -18 32 -37 30 -49z
m-2678 -3 c-10 -16 -11 -15 -6 7 3 14 6 32 7 40 1 8 4 5 6 -7 2 -12 -1 -30 -7
-40z m2735 16 c36 -32 87 -47 138 -42 46 6 47 5 47 -23 0 -16 3 -47 6 -69 l7
-40 -31 28 c-28 27 -47 25 -38 -5 2 -7 7 -25 10 -40 6 -26 5 -27 -21 -17 -56
20 -174 148 -166 180 4 14 11 18 27 13 17 -5 15 -1 -9 20 -22 19 -25 24 -10
19 11 -3 29 -14 40 -24z m-101 -10 c-3 -5 -1 -16 5 -23 8 -10 8 -16 -2 -24
-10 -9 -14 -3 -16 29 -1 27 2 38 9 34 6 -3 8 -11 4 -16z m595 -79 c-34 -75
-61 -99 -29 -27 10 23 26 60 35 82 10 22 19 34 22 28 3 -7 -10 -44 -28 -83z
m-358 -182 c9 -16 4 -18 -41 -18 -33 0 -50 4 -51 13 0 10 -2 10 -6 0 -3 -9
-29 -13 -81 -13 l-77 0 3 102 c4 89 7 104 25 119 22 17 23 16 120 -84 54 -56
102 -110 108 -119z m-2461 118 c0 -32 -39 -141 -47 -133 -2 3 6 28 17 57 14
37 19 63 14 87 -5 26 -4 34 5 29 6 -4 11 -22 11 -40z m1720 -54 c0 -32 5 -63
12 -70 7 -7 8 -12 2 -12 -6 0 -16 10 -23 23 l-11 22 6 -22 c5 -22 2 -23 -50
-23 l-56 0 0 70 0 70 60 0 60 0 0 -58z m1052 6 c-7 -7 -12 -8 -12 -2 0 6 3 14
7 17 3 4 9 5 12 2 2 -3 -1 -11 -7 -17z m88 -24 c0 -8 -5 -12 -10 -9 -6 4 -8
11 -5 16 9 14 15 11 15 -7z m-112 -2 c15 12 15 11 4 -4 -8 -9 -20 -14 -29 -11
-8 3 -19 0 -24 -8 -6 -9 -9 -10 -9 -2 0 16 34 35 38 22 3 -6 11 -5 20 3z m-72
-24 c-15 -50 -16 -51 -32 -37 -14 12 -14 15 6 31 26 21 31 22 26 6z m168 6 c9
-3 16 -12 16 -20 0 -12 -4 -12 -20 -2 -30 19 -27 34 4 22z m-8 -52 c-4 -3 -14
2 -24 12 -16 18 -16 18 6 6 13 -6 21 -14 18 -18z m-344 -11 c8 11 9 11 6 1 -4
-16 -22 -18 -24 -2 -2 7 -1 6 3 -1 4 -8 8 -7 15 2z m-3102 -11 c0 8 9 0 20
-17 11 -18 26 -33 33 -33 13 0 15 -15 8 -52 0 -5 -18 -8 -38 -8 -29 0 -47 -9
-93 -49 -54 -47 -58 -49 -75 -33 -16 16 -17 16 -5 -6 10 -21 7 -28 -34 -72
-25 -27 -46 -54 -46 -60 0 -17 6 -12 33 29 14 21 63 71 108 111 l81 72 121 -4
c85 -2 122 -7 125 -16 2 -6 14 -12 27 -12 37 0 75 -18 75 -35 0 -8 -9 -15 -21
-15 -13 0 -18 4 -13 12 5 8 -2 9 -25 5 -23 -5 -30 -3 -25 5 4 6 3 8 -4 4 -5
-3 -13 0 -16 6 -4 7 -5 4 -3 -7 4 -19 -1 -20 -105 -17 -84 3 -108 0 -108 -10
0 -10 -2 -10 -8 0 -6 9 -23 2 -65 -28 -31 -23 -59 -41 -62 -40 -19 1 -24 -3
-39 -24 l-16 -25 75 4 c74 4 74 4 54 -16 -15 -15 -17 -24 -9 -39 6 -11 16 -20
22 -20 7 0 3 -7 -8 -15 -18 -14 -18 -16 -2 -28 10 -8 15 -17 11 -20 -3 -4 37
-7 89 -7 73 0 99 -4 108 -15 7 -8 17 -15 22 -15 5 0 26 -11 46 -25 37 -25 72
-33 72 -16 0 5 8 12 17 15 10 4 14 4 11 0 -4 -3 5 -16 20 -29 l27 -23 -39 -7
c-50 -10 -128 -9 -306 2 -80 5 -151 7 -158 5 -29 -10 -2 -27 44 -28 91 -2 108
-4 99 -13 -16 -14 -256 -39 -261 -27 -2 6 -3 110 -2 231 l3 220 38 6 c55 9 56
18 1 11 -42 -4 -47 -3 -41 12 4 10 7 32 8 49 0 18 3 27 5 21 5 -13 54 -6 54 7
0 5 7 9 15 9 8 0 15 -5 15 -12 0 -24 11 1 19 43 l9 44 1 -40 c1 -25 4 -35 10
-27 9 15 62 13 73 -3 5 -6 8 -5 8 4 0 8 6 11 17 7 14 -6 14 -3 -3 16 -12 13
-19 29 -17 37 5 11 7 11 14 0 7 -12 9 -11 9 1z m1370 -35 c0 -25 0 -25 95 -25
l95 0 0 -65 0 -65 -95 0 -95 0 0 -110 c0 -103 1 -110 20 -110 19 0 20 7 20 95
l0 95 75 0 75 0 0 -137 c0 -76 -4 -143 -8 -150 -14 -23 -64 -33 -161 -33 -106
0 -156 12 -171 40 -6 10 -10 84 -10 164 0 139 -1 146 -20 146 -18 0 -20 7 -20
61 0 52 3 62 20 66 13 3 20 14 20 29 0 23 2 24 80 24 79 0 80 0 80 -25z
m-1400 5 c8 -5 12 -11 10 -14 -3 -2 -14 2 -24 10 -22 15 -10 19 14 4z m2535
-50 l0 -55 -40 -3 c-53 -5 -68 -18 -63 -58 3 -25 0 -34 -13 -37 -10 -3 -20 2
-23 10 -20 50 14 108 69 119 25 4 35 11 35 25 0 18 -13 19 -300 19 -287 0
-300 -1 -300 -19 0 -13 10 -21 33 -25 41 -8 94 -61 137 -138 29 -53 32 -78 10
-78 -4 0 -23 26 -40 58 -51 91 -86 122 -137 122 l-43 0 0 60 0 60 338 -2 337
-3 0 -55z m565 6 l0 -53 -51 -7 c-61 -8 -105 -45 -147 -123 -21 -40 -31 -50
-42 -43 -13 8 -11 18 14 65 37 72 94 123 146 131 30 5 40 11 40 25 0 18 -11
19 -205 19 -194 0 -205 -1 -205 -19 0 -14 10 -21 36 -26 50 -9 84 -45 84 -89
0 -45 -9 -66 -27 -66 -12 0 -13 8 -8 39 8 51 -16 77 -79 86 l-46 7 0 54 0 54
245 0 245 0 0 -54z m77 5 c-3 -14 -1 -34 5 -45 8 -14 5 -23 -11 -39 l-21 -21
0 78 c0 70 2 77 16 65 10 -8 14 -22 11 -38z m-2411 14 l24 -24 -2 -228 -3
-228 -128 -3 c-142 -3 -202 8 -212 38 -4 11 -7 70 -7 132 -1 140 6 148 118
148 l74 0 0 30 c0 23 -4 30 -20 30 -11 0 -20 -7 -20 -15 0 -12 -15 -15 -75
-15 -83 0 -78 -6 -76 80 1 72 17 80 173 80 124 0 130 -1 154 -25z m214 -165
c0 -183 1 -190 20 -190 19 0 20 7 20 190 l0 190 80 0 80 0 0 -230 c0 -214 -1
-231 -19 -249 -27 -27 -71 -34 -189 -29 -150 5 -142 -11 -142 275 l0 233 75 0
75 0 0 -190z m851 178 c0 -7 1 -35 2 -63 l2 -50 52 -5 c82 -9 93 -24 93 -140
0 -76 -3 -100 -16 -110 -21 -18 -37 -49 -43 -88 -3 -18 -9 -33 -13 -32 -5 0
-60 0 -123 0 -164 0 -155 -14 -155 249 l0 210 26 20 c22 17 41 21 100 21 52 0
74 -4 75 -12z m1379 -39 c0 -5 -4 -9 -10 -9 -5 0 -10 7 -10 16 0 8 5 12 10 9
6 -3 10 -10 10 -16z m30 -10 c0 -11 -4 -18 -10 -14 -5 3 -7 12 -3 20 7 21 13
19 13 -6z m-1111 -11 c11 -10 13 -10 7 0 -9 14 20 17 29 2 3 -5 12 -10 18 -10
7 0 6 4 -3 10 -10 6 30 9 117 7 72 -1 129 -4 126 -7 -2 -3 -10 -5 -16 -5 -7 0
-12 -6 -12 -13 0 -8 -9 -20 -19 -28 -11 -8 -16 -14 -12 -14 4 0 4 -4 1 -10 -4
-6 -16 -3 -33 8 -14 9 -23 11 -19 5 14 -23 -9 -14 -56 22 -25 19 -49 35 -53
35 -4 0 17 -18 46 -40 30 -22 60 -38 67 -36 7 3 15 2 17 -3 3 -4 0 -8 -7 -9
-7 0 -23 -4 -37 -7 -15 -4 -20 -3 -13 2 9 6 7 12 -8 22 -12 7 -18 8 -14 2 3
-6 0 -11 -7 -11 -7 0 -2 -7 10 -16 12 -8 31 -13 41 -9 11 3 22 2 25 -3 3 -6 0
-10 -7 -9 -6 0 -21 -1 -32 -2 -17 -3 -16 -4 5 -10 21 -6 15 -10 -40 -25 -105
-28 -114 -30 -107 -18 4 5 -1 13 -11 17 -16 7 -15 8 3 15 l20 9 -20 1 c-23 1
-59 45 -50 60 3 6 1 10 -5 10 -18 0 -60 36 -52 45 4 5 0 6 -10 2 -9 -3 -24 1
-35 8 -16 13 -9 14 58 15 46 0 80 -5 88 -12z m641 6 c0 -8 -19 -13 -24 -6 -3
5 1 9 9 9 8 0 15 -2 15 -3z m64 -6 c-5 -8 -2 -9 10 -5 9 4 15 3 11 -2 -3 -5 0
-11 7 -13 7 -3 5 -7 -6 -11 -11 -5 -15 -3 -10 5 5 7 2 9 -7 6 -10 -4 -15 1
-16 13 -1 10 3 19 8 19 6 0 7 -5 3 -12z m66 8 c0 -2 -7 -7 -16 -10 -8 -3 -12
-2 -9 4 6 10 25 14 25 6z m65 -6 c-3 -5 -11 -10 -16 -10 -6 0 -7 5 -4 10 3 6
11 10 16 10 6 0 7 -4 4 -10z m513 -34 c-13 -20 -27 -36 -31 -36 -5 0 4 18 20
39 35 48 43 46 11 -3z m-563 24 c-3 -5 -12 -10 -18 -10 -7 0 -6 4 3 10 19 12
23 12 15 0z m10 -20 c-3 -5 -12 -10 -18 -10 -7 0 -6 4 3 10 19 12 23 12 15 0z
m445 5 c0 -16 -54 -84 -63 -78 -6 3 -4 9 5 14 9 5 21 22 28 39 11 25 30 42 30
25z m-1000 -69 c0 -2 -7 -7 -16 -10 -8 -3 -12 -2 -9 4 6 10 25 14 25 6z m766
-22 c-5 -19 -4 -24 6 -18 8 4 10 3 5 -2 -5 -5 -12 -9 -15 -10 -35 -4 -66 -32
-83 -74 -8 -20 -12 -22 -19 -10 -8 13 -10 12 -10 -2 0 -24 -5 -23 -45 8 -33
25 -34 27 -21 53 8 14 26 39 41 54 24 23 36 27 87 27 60 0 60 0 54 -26z
m-2911 5 c16 -7 13 -8 -14 -6 -46 5 -122 -12 -145 -32 -18 -15 -18 -15 -5 7 8
12 25 25 39 28 14 3 30 7 35 9 20 7 70 3 90 -6z m88 -6 c-7 -2 -19 -2 -25 0
-7 3 -2 5 12 5 14 0 19 -2 13 -5z m2957 -3 c0 -5 -2 -10 -4 -10 -3 0 -8 5 -11
10 -3 6 -1 10 4 10 6 0 11 -4 11 -10z m-910 -10 c-8 -5 -19 -10 -25 -10 -5 0
-3 5 5 10 8 5 20 10 25 10 6 0 3 -5 -5 -10z m244 -31 c4 -4 20 -5 36 -3 17 2
30 -1 30 -7 0 -7 11 -9 30 -6 16 4 32 2 35 -3 4 -6 11 -8 16 -5 5 4 9 2 9 -3
0 -6 10 -8 22 -4 16 4 19 2 13 -8 -6 -10 -4 -12 8 -7 10 3 17 2 17 -3 0 -5 7
-7 15 -4 8 4 15 1 15 -6 0 -6 5 -8 10 -5 6 3 10 1 10 -5 0 -6 5 -8 10 -5 6 3
10 2 10 -3 0 -6 11 -13 24 -16 37 -9 88 -56 83 -76 -2 -9 0 -25 6 -35 7 -13 6
-16 -3 -10 -9 5 -10 2 -5 -14 5 -15 2 -21 -9 -21 -19 0 -20 -9 -6 -44 7 -18 6
-26 -1 -26 -8 0 -7 -5 1 -16 8 -8 9 -14 4 -13 -24 4 -24 -3 0 -32 14 -17 26
-36 26 -42 0 -7 -5 -6 -11 3 -8 11 -9 5 -4 -23 3 -21 8 -44 11 -51 3 -8 -3
-17 -13 -20 -10 -4 -19 -2 -21 3 -2 6 -8 9 -13 6 -5 -4 -6 1 -3 9 3 9 9 16 13
16 3 0 6 15 5 32 -1 18 4 36 10 40 7 5 -5 24 -33 52 -24 25 -47 45 -50 44 -19
-2 -31 3 -27 11 8 12 -20 22 -41 14 -10 -4 -14 -2 -10 4 7 11 -72 44 -102 42
-9 0 2 -7 24 -15 22 -7 29 -11 15 -9 -101 20 -202 27 -330 22 -80 -4 -158 -8
-175 -11 -16 -3 -7 1 20 8 61 17 33 21 -31 5 -32 -8 -41 -14 -32 -20 10 -7 8
-9 -7 -11 -50 -4 -61 -5 -73 -7 -7 0 -10 -5 -7 -11 3 -6 -1 -7 -9 -4 -9 3 -16
1 -16 -6 0 -6 -4 -9 -8 -6 -4 2 -33 -22 -65 -53 -31 -32 -57 -57 -57 -56 0 1
12 24 26 49 15 26 24 50 20 53 -3 4 -6 2 -6 -4 0 -5 -7 -10 -15 -10 -11 0 -12
4 -3 14 6 7 8 16 5 20 -4 3 -1 15 5 26 9 17 8 19 -6 14 -15 -6 -17 -1 -12 38
3 29 1 45 -6 45 -18 0 23 40 79 77 29 19 57 32 63 28 5 -3 10 -2 10 4 0 13 67
34 81 25 8 -5 9 -3 4 6 -6 10 -4 12 8 7 10 -4 17 -2 17 4 0 6 9 9 20 6 11 -3
23 -1 26 4 3 5 23 7 45 4 21 -3 39 -1 39 4 0 9 225 9 234 0z m646 -50 c0 -9
-7 -24 -15 -33 -8 -8 -15 -19 -15 -25 0 -5 -3 -12 -7 -14 -13 -8 -14 56 -2 86
9 22 14 25 25 16 8 -6 14 -20 14 -30z m-2970 -13 l85 -34 3 -51 3 -50 -52 15
c-29 9 -63 20 -76 25 -14 5 -48 9 -76 10 -38 0 -47 3 -32 9 34 14 82 11 137
-10 72 -27 86 -25 18 4 -30 12 -75 32 -99 44 -32 16 -48 19 -62 12 -14 -8 -18
-6 -21 12 -2 14 -12 25 -28 29 -22 5 -20 7 15 11 81 9 102 7 185 -26z m2815 4
c3 -5 -1 -10 -9 -10 -9 0 -16 5 -16 10 0 6 4 10 9 10 6 0 13 -4 16 -10z
m-3000 -19 c0 -8 -14 -15 -32 -16 -18 -2 -33 2 -33 7 0 5 -5 6 -10 3 -16 -10
-2 -25 22 -25 12 0 19 -3 15 -6 -9 -10 -67 7 -67 19 0 7 10 17 23 24 29 14 82
10 82 -6z m3249 -5 c-6 -16 -24 -23 -24 -8 0 10 22 33 27 28 2 -2 1 -11 -3
-20z m-3273 -73 c13 -16 12 -17 -3 -4 -10 7 -18 15 -18 17 0 8 8 3 21 -13z
m3402 -328 c-26 -23 -81 -36 -69 -16 4 5 -3 7 -14 4 -15 -4 -18 -9 -10 -18 18
-21 -1 -25 -122 -24 -62 0 -137 -4 -167 -10 -74 -15 -75 -15 -52 15 14 18 21
41 21 70 0 41 2 43 33 48 174 29 186 33 238 78 14 13 38 44 53 71 15 26 46 66
69 90 l42 42 3 -163 2 -163 -27 -24z m-3360 298 c-7 -2 -19 -2 -25 0 -7 3 -2
5 12 5 14 0 19 -2 13 -5z m3067 -68 c-7 -9 -15 -13 -18 -10 -3 2 1 11 8 20 7
9 15 13 18 10 3 -2 -1 -11 -8 -20z m-592 -18 c8 -6 12 -6 12 2 0 6 9 11 20 11
25 0 25 0 -2 -62 l-21 -50 -28 53 c-16 30 -28 57 -29 61 0 9 29 -1 48 -15z
m627 -7 c-3 -5 -11 -10 -16 -10 -6 0 -7 5 -4 10 3 6 11 10 16 10 6 0 7 -4 4
-10z m-878 -205 c134 -255 128 -247 160 -243 24 3 36 25 128 223 67 146 107
221 118 223 9 2 17 0 17 -5 0 -4 -48 -113 -107 -241 l-106 -233 -55 3 -54 3
-120 227 c-107 206 -127 256 -96 246 5 -2 57 -94 115 -203z m-157 185 c0 -5
-10 -10 -22 -9 -22 0 -22 1 -3 9 11 5 21 9 23 9 1 1 2 -3 2 -9z m635 0 c13 -6
15 -9 5 -9 -8 0 -22 4 -30 9 -18 12 -2 12 25 0z m-1570 -20 c33 -17 59 -20
167 -20 91 0 138 4 166 15 34 14 42 14 75 0 25 -10 71 -15 152 -15 l115 0 -2
-82 c-3 -121 26 -158 109 -136 45 11 75 34 101 76 l19 32 33 -25 c19 -14 41
-25 49 -25 10 0 46 -59 100 -163 80 -156 83 -164 80 -220 -2 -33 0 -57 6 -58
6 -1 -35 -9 -90 -19 -55 -10 -101 -14 -103 -9 -2 4 -12 20 -24 34 -31 40 -66
51 -218 71 -25 3 -61 9 -82 14 -20 4 -84 8 -142 9 -88 2 -107 -1 -112 -13 -4
-12 -20 -16 -54 -16 -27 0 -115 -11 -196 -25 -81 -14 -149 -23 -151 -21 -2 2
8 7 23 10 14 4 24 10 20 13 -3 3 8 23 25 44 17 22 26 39 21 39 -6 0 -19 -12
-30 -27 l-20 -27 -14 30 c-9 16 -13 35 -11 42 3 8 -5 12 -24 11 -17 -1 -21 -3
-10 -6 9 -2 17 -11 17 -19 0 -11 -4 -12 -19 -4 -11 5 -23 10 -28 10 -4 -1 3
-7 17 -14 14 -8 28 -12 32 -10 5 3 8 -2 8 -11 0 -18 -7 -15 -58 22 -38 29 -70
25 -51 -6 10 -15 8 -27 -8 -62 l-21 -44 27 -6 c14 -4 19 -7 10 -8 -8 0 -40 -8
-69 -17 l-55 -16 28 -24 c27 -23 54 -33 43 -16 -2 4 4 8 15 8 10 0 19 -7 20
-16 0 -11 2 -11 6 -2 4 10 8 10 20 1 12 -10 16 -10 24 2 8 13 13 5 10 -14 -1
-5 4 -7 11 -5 22 8 14 33 -9 33 -39 0 -30 19 10 23 25 2 37 -1 38 -10 0 -7 4
-4 8 6 7 18 9 17 26 -12 22 -36 53 -51 66 -31 6 9 9 10 9 2 0 -6 9 -15 20 -18
11 -4 18 -10 15 -15 -3 -4 4 -10 15 -13 11 -3 20 -1 20 4 0 13 27 11 35 -2 4
-6 1 -9 -6 -8 -8 1 -21 -1 -29 -4 -15 -7 -375 -59 -496 -73 l-62 -6 -6 248
c-3 137 -8 322 -10 412 l-5 162 142 0 c118 0 149 4 182 19 22 11 40 20 40 20
1 1 18 -8 40 -19z m1639 -26 c3 -8 -1 -14 -9 -14 -8 0 -15 5 -15 11 0 5 -5 7
-11 4 -13 -8 -6 -30 9 -31 7 -1 22 -3 35 -4 12 -1 0 -6 -26 -10 -27 -5 -64
-21 -84 -36 -20 -15 -33 -21 -28 -13 5 8 17 20 28 28 12 9 15 16 8 20 -16 10
16 51 40 51 10 0 19 4 19 10 0 14 27 1 34 -16z m-737 6 c17 -6 35 -22 42 -36
9 -20 8 -24 -1 -19 -7 4 -6 1 2 -7 8 -7 22 -22 30 -33 14 -19 14 -19 -5 -4
-32 27 -82 49 -112 50 l-28 1 29 7 c30 6 34 28 5 24 -9 -1 -16 4 -16 12 0 18
13 19 54 5z m1017 -35 c-4 -8 -13 -15 -21 -15 -13 0 -13 3 -3 15 7 8 16 15 21
15 5 0 6 -7 3 -15z m-2430 -117 c5 -82 25 -943 24 -1023 0 -17 -2 -16 -12 6
-14 33 -38 27 -30 -8 5 -19 4 -24 -6 -18 -9 6 -10 3 -1 -13 17 -32 14 -63 -6
-55 -10 4 -14 2 -10 -4 4 -6 0 -14 -9 -17 -24 -9 -31 -7 -14 4 13 8 13 10 -1
10 -22 0 -31 24 -16 40 9 10 9 11 0 6 -6 -3 -14 2 -18 13 -3 10 -15 21 -26 24
-16 4 -19 2 -14 -16 5 -19 4 -20 -5 -5 -10 16 1 52 21 68 4 3 0 30 -8 60 -21
80 -10 149 28 186 25 24 30 36 28 69 -1 24 8 60 21 89 28 61 36 151 20 231 -6
33 -15 97 -19 141 -5 59 -15 96 -34 134 -15 28 -27 60 -27 69 0 10 -9 26 -19
35 -18 17 -21 17 -45 0 -15 -9 -31 -24 -36 -33 -5 -9 -10 -11 -10 -4 0 6 5 15
10 18 6 3 10 15 10 27 0 14 5 18 16 14 8 -3 12 -2 9 4 -11 17 -68 -3 -122 -43
-48 -36 -60 -40 -102 -38 -42 2 -54 -2 -82 -27 -19 -16 -48 -36 -65 -45 -32
-17 -70 -61 -98 -114 -9 -18 -27 -35 -40 -39 -13 -3 -33 -16 -44 -29 -41 -47
-52 -82 -52 -163 0 -45 -7 -101 -17 -133 -9 -30 -16 -60 -14 -66 2 -15 4 -15
-37 -4 -45 13 -40 5 12 -18 40 -19 64 -46 51 -59 -2 -3 -9 6 -14 19 -5 13 -10
18 -10 11 -1 -8 -11 -5 -30 9 -28 21 -40 21 -86 3 -16 -6 -15 -3 5 15 24 21
24 22 3 16 l-23 -6 0 325 0 325 28 5 c15 3 124 17 242 31 118 14 303 36 410
49 107 13 209 24 227 25 l31 1 6 -102z m1270 52 c-2 -22 0 -40 5 -40 5 0 12
-7 15 -16 3 -8 2 -13 -3 -9 -5 3 -11 -1 -14 -7 -5 -15 -38 0 -45 22 -3 7 0 10
7 6 7 -5 11 2 11 19 0 24 15 65 24 65 2 0 2 -18 0 -40z m67 4 c-31 -26 -51
-25 -51 2 0 15 21 15 32 -1 4 -5 10 -2 14 8 3 9 13 17 21 17 9 0 2 -10 -16
-26z m840 9 c13 -17 13 -17 -6 -3 -11 8 -22 16 -24 17 -2 2 0 3 6 3 6 0 17 -8
24 -17z m-344 -15 c-3 -8 -6 -5 -6 6 -1 11 2 17 5 13 3 -3 4 -12 1 -19z m391
4 c-4 -23 -24 -25 -25 -4 -1 10 5 19 13 19 8 0 14 -7 12 -15z m-2477 -43 c-9
-22 -10 -22 -10 -3 -1 11 2 24 6 27 12 12 14 0 4 -24z m2126 -1 c-3 -8 -6 -5
-6 6 -1 11 2 17 5 13 3 -3 4 -12 1 -19z m234 15 c8 -48 10 -62 13 -89 2 -29 1
-31 -23 -25 -13 4 -27 13 -29 21 -3 9 2 11 17 7 16 -4 21 -1 21 14 0 16 -5 18
-25 13 -20 -5 -24 -3 -19 9 3 8 0 18 -7 22 -8 6 -4 12 12 21 28 15 38 17 40 7z
m-2397 -48 c-4 -8 -1 -15 6 -15 6 0 8 -4 5 -10 -3 -5 -1 -10 6 -10 6 0 0 -11
-15 -25 -14 -13 -26 -27 -26 -30 0 -3 -11 -23 -25 -45 -14 -21 -22 -46 -19
-54 3 -7 0 -17 -7 -22 -9 -5 -10 -2 -6 12 6 14 2 13 -13 -6 -29 -35 -38 -60
-67 -185 -25 -112 -29 -197 -12 -243 14 -35 -3 -50 -34 -29 -15 10 -24 25 -24
40 0 14 -8 35 -16 48 -16 22 -16 22 -11 -12 5 -26 1 -39 -12 -49 -16 -13 -17
-13 -11 3 4 9 2 17 -4 17 -6 0 -9 6 -6 14 3 8 -2 16 -14 19 -10 3 -19 12 -19
20 0 22 38 103 55 117 14 12 75 129 79 154 3 17 36 78 57 104 10 13 21 44 25
69 5 35 17 58 47 90 39 42 72 58 61 28z m2488 -57 c-9 -4 -27 -7 -39 -7 -19
-1 -23 4 -23 28 l0 29 40 -21 c31 -18 36 -23 22 -29z m-2592 26 c0 -2 -7 -4
-15 -4 -8 0 -15 4 -15 10 0 5 7 7 15 4 8 -4 15 -8 15 -10z m2207 -6 c-3 -8 -6
-5 -6 6 -1 11 2 17 5 13 3 -3 4 -12 1 -19z m-1917 -2 c0 -2 7 -21 16 -42 l15
-39 -25 29 c-27 30 -34 56 -16 56 6 0 10 -2 10 -4z m2087 -33 c2 -6 -5 -13
-17 -16 -22 -6 -23 -5 -14 18 7 17 25 16 31 -2z m-2137 -17 c13 -15 20 -32 17
-40 -4 -9 -3 -16 2 -16 11 0 22 -41 14 -53 -9 -14 -32 34 -27 57 6 31 -25 54
-63 46 -18 -4 -34 -5 -37 -2 -11 10 -6 21 12 25 39 10 60 6 82 -17z m2735 15
c-6 -5 -21 -11 -35 -15 -21 -5 -20 -3 5 9 35 17 42 18 30 6z m-848 -23 c-3 -8
-6 -5 -6 6 -1 11 2 17 5 13 3 -3 4 -12 1 -19z m-2005 -10 c-7 -7 -12 -8 -12
-2 0 14 12 26 19 19 2 -3 -1 -11 -7 -17z m3038 -91 l0 -84 -126 -17 c-69 -10
-128 -15 -131 -12 -4 3 6 6 20 6 19 0 27 5 27 18 0 29 -20 44 -39 30 -9 -7 -2
3 14 22 17 19 31 37 32 39 1 2 14 0 30 -3 21 -6 24 -9 12 -17 -20 -13 2 -25
60 -34 25 -3 56 -9 69 -12 12 -3 22 0 22 6 0 6 -7 8 -17 4 -11 -4 -14 -3 -9 5
5 8 -1 12 -16 13 -13 0 -39 7 -58 14 l-35 14 50 -5 c28 -3 58 -7 68 -9 11 -2
17 3 17 15 0 15 -11 20 -47 26 -27 4 -51 12 -56 18 -5 7 -11 5 -18 -6 -11 -19
-64 -25 -74 -8 -3 6 -3 11 2 11 4 1 17 3 28 4 11 2 44 8 74 14 30 6 63 9 73 5
12 -3 18 0 18 10 0 9 2 16 5 16 3 0 5 -38 5 -83z m-3064 64 c-4 -5 -2 -11 3
-13 5 -1 1 -19 -9 -38 l-19 -35 -1 28 c0 27 15 67 26 67 3 0 3 -4 0 -9z m205
-64 c-13 -13 -15 11 -4 40 7 16 8 15 11 -6 2 -13 -1 -28 -7 -34z m2279 48 c0
-9 -58 -34 -100 -44 -57 -13 -43 -2 32 24 35 12 64 23 66 24 1 0 2 -1 2 -4z
m-400 -25 c0 -5 -5 -10 -11 -10 -5 0 -7 5 -4 10 3 6 8 10 11 10 2 0 4 -4 4
-10z m750 -10 c-8 -5 -19 -10 -25 -10 -5 0 -3 5 5 10 8 5 20 10 25 10 6 0 3
-5 -5 -10z m-611 -34 c-2 -2 -15 -9 -29 -15 -24 -11 -24 -11 -6 3 16 13 49 24
35 12z m-2269 -36 c0 -5 -2 -10 -4 -10 -3 0 -8 5 -11 10 -3 6 -1 10 4 10 6 0
11 -4 11 -10z m247 -107 c-2 -21 -4 -4 -4 37 0 41 2 58 4 38 2 -21 2 -55 0
-75z m2041 100 c-10 -2 -28 -2 -40 0 -13 2 -5 4 17 4 22 1 32 -1 23 -4z m97
-13 c-4 -6 -11 -7 -17 -4 -8 5 -9 1 -5 -10 4 -10 3 -15 -3 -11 -6 3 -10 1 -10
-5 0 -6 -5 -8 -10 -5 -6 4 -8 11 -5 16 4 5 1 9 -4 9 -6 0 -11 -10 -11 -22 0
-20 -1 -21 -20 -3 -24 22 -21 26 27 35 56 11 65 11 58 0z m-90 -43 c52 -60 46
-69 -63 -88 -85 -14 -92 -14 -92 2 0 9 -3 37 -6 63 -7 46 -6 46 22 46 16 0 34
4 41 8 31 20 64 9 98 -31z m490 13 c-10 -11 -22 -20 -28 -20 -5 0 1 9 14 20
31 25 37 25 14 0z m-128 -12 c-3 -8 -6 -5 -6 6 -1 11 2 17 5 13 3 -3 4 -12 1
-19z m-2954 -163 c4 -82 1 -105 -14 -105 -4 0 -6 7 -3 15 4 8 1 15 -6 15 -9 0
-10 17 -5 63 7 66 14 101 20 95 2 -2 6 -40 8 -83z m3397 40 c-7 -8 -16 -13
-20 -10 -4 2 -16 -2 -26 -10 -24 -18 -47 -19 -39 -2 4 6 0 4 -7 -5 -13 -15
-15 -14 -25 12 -9 25 -9 28 6 23 9 -4 12 -2 8 3 -5 5 15 13 50 19 47 9 59 8
61 -3 2 -7 -2 -19 -8 -27z m-2263 29 c-3 -3 -12 -4 -19 -1 -8 3 -5 6 6 6 11 1
17 -2 13 -5z m2054 -58 c7 -19 15 -33 19 -31 3 2 12 0 20 -5 13 -8 13 -11 1
-22 -11 -11 -13 -11 -6 0 5 10 -1 12 -28 7 -32 -6 -35 -5 -41 22 -4 15 -9 36
-12 46 -4 12 0 17 15 17 13 0 24 -11 32 -34z m48 -17 c-9 -6 -18 -3 -27 9 -11
14 -10 19 5 30 15 11 19 10 27 -8 7 -16 6 -24 -5 -31z m-159 25 c0 -11 6 -15
20 -11 11 3 18 1 14 -4 -3 -5 -12 -9 -20 -9 -8 0 -12 -5 -9 -10 4 -7 12 -7 25
0 14 7 19 5 23 -9 5 -19 -20 -33 -63 -35 -20 -1 -36 74 -18 86 20 12 28 10 28
-8z m330 -2 c0 -12 -15 -23 -45 -34 -60 -23 -62 0 -2 29 23 11 43 21 45 22 1
0 2 -7 2 -17z m-2177 1 c-7 -2 -21 -2 -30 0 -10 3 -4 5 12 5 17 0 24 -2 18 -5z
m1754 -33 c5 -25 9 -30 27 -25 18 5 17 4 -4 -10 l-25 -16 30 6 c48 11 22 -5
-34 -20 l-51 -13 -8 31 c-7 25 -5 34 7 39 12 6 11 7 -4 5 -11 -2 -19 -7 -18
-13 7 -42 6 -59 -2 -62 -6 -2 -13 7 -17 20 -7 20 -7 20 -4 -4 2 -21 -1 -28
-14 -28 -10 0 -33 -7 -52 -15 l-35 -14 5 26 c4 21 2 25 -11 20 -10 -4 -20 0
-25 10 -7 12 -13 13 -31 4 -11 -7 -21 -17 -21 -23 0 -6 6 -6 16 3 13 10 17 10
24 -1 4 -7 6 -19 3 -27 -4 -9 0 -11 11 -7 32 12 15 -12 -27 -36 -53 -32 -58
-34 -55 -23 3 11 -24 153 -30 153 -2 0 -20 -13 -38 -30 -34 -30 -34 -30 -14
-47 23 -20 28 -73 6 -73 -8 0 -17 8 -20 18 -2 9 -2 -1 1 -23 11 -67 9 -77 -17
-96 -14 -10 -53 -25 -88 -33 l-63 -14 -6 29 c-3 16 -12 29 -19 29 -18 0 -19
-50 -1 -50 7 0 4 -7 -7 -15 -25 -19 -26 -19 96 9 56 14 128 27 158 30 47 5 43
3 -30 -14 -47 -11 -102 -27 -123 -35 -21 -8 -90 -28 -155 -44 -64 -16 -126
-33 -137 -37 -11 -4 -17 -4 -13 1 4 4 45 22 90 39 80 30 84 32 77 56 -4 14 -8
18 -9 10 -1 -9 -5 -5 -11 9 -7 18 -6 27 3 33 10 6 8 8 -4 8 -15 0 -17 -7 -12
-44 l7 -45 -49 -14 c-27 -8 -51 -11 -54 -7 -5 8 -50 -6 -50 -15 0 -4 5 -3 10
0 6 3 10 4 10 2 0 -5 -40 -30 -116 -73 -23 -13 -45 -20 -49 -16 -3 4 -13 -2
-21 -13 -14 -19 -16 -19 -25 -2 -6 9 -17 17 -24 17 -8 0 -15 4 -15 9 0 5 -11
4 -24 -2 -17 -8 -21 -15 -15 -23 7 -8 2 -12 -16 -13 -48 -3 -55 -4 -55 -12 0
-5 37 -7 83 -6 l82 2 0 -30 c0 -34 -19 -41 -115 -45 -30 -1 -64 -6 -75 -11
-20 -9 4 -8 139 7 43 5 57 4 52 -5 -4 -6 -35 -11 -74 -11 -37 0 -84 -4 -104
-9 l-38 -9 0 249 0 249 23 5 c12 3 94 14 182 25 88 11 238 32 334 46 182 26
215 27 217 7 1 -7 2 -17 3 -23 0 -5 6 -10 12 -10 6 0 8 7 5 15 -3 8 -9 21 -12
29 -4 10 11 15 63 20 37 4 83 10 101 13 27 4 31 3 26 -11 -4 -10 -1 -16 9 -16
8 0 17 9 20 21 3 12 11 19 18 17 7 -2 36 1 63 8 28 7 72 13 99 13 45 1 48 0
54 -29z m-2454 -85 c-2 -5 3 -1 11 9 9 11 16 23 16 28 0 4 5 8 10 8 18 0 10
-24 -19 -63 l-29 -38 1 78 c0 68 1 72 7 33 4 -25 5 -49 3 -55z m-168 66 c6
-21 -10 -71 -23 -71 -5 0 -21 -11 -36 -25 -14 -13 -26 -20 -26 -15 0 5 5 12
11 15 16 10 -21 47 -40 40 -8 -3 -12 -3 -8 1 4 4 2 13 -3 19 -16 19 13 26 44
12 30 -14 33 -24 9 -30 -17 -4 -17 -5 1 -12 31 -13 51 7 48 49 -4 38 12 50 23
17z m3045 -10 c0 -24 -3 -28 -20 -24 -28 8 -33 19 -14 37 23 24 34 19 34 -13z
m-2909 -35 c-13 -15 -58 -18 -67 -5 -3 5 -10 7 -15 4 -5 -4 -9 1 -9 9 0 20 29
21 36 2 10 -27 53 -6 55 27 2 21 2 21 6 -1 3 -13 0 -29 -6 -36z m-39 22 c-7
-7 -12 -8 -12 -2 0 14 12 26 19 19 2 -3 -1 -11 -7 -17z m-65 -17 c0 -10 -7
-17 -13 -14 -7 3 -10 11 -7 19 8 20 22 17 20 -5z m2246 -5 c3 -8 0 -22 -7 -32
-13 -17 -14 -16 -25 4 -7 13 -9 27 -6 32 9 15 32 12 38 -4z m443 -5 c-38 -10
-74 -25 -80 -33 -6 -8 -25 -22 -43 -31 -26 -14 -41 -15 -84 -7 -29 6 -54 11
-55 13 -7 6 71 29 174 52 127 28 187 32 88 6z m-2846 -51 c0 -5 -2 -10 -4 -10
-3 0 -8 5 -11 10 -3 6 -1 10 4 10 6 0 11 -4 11 -10z m2935 -30 c-3 -5 -16 -10
-28 -9 -20 1 -20 2 3 9 14 4 26 8 28 9 2 1 0 -3 -3 -9z m-1517 -382 c-3 -433
7 -386 -85 -372 -39 6 -43 5 -43 -15 0 -15 -6 -21 -22 -22 -13 0 -17 -3 -10
-6 25 -10 82 7 82 25 0 15 2 15 10 2 5 -8 22 -15 37 -15 27 0 28 -2 31 -56 l3
-56 -38 -7 c-68 -11 -97 -6 -152 24 -30 17 -55 29 -55 28 -1 -2 -7 -10 -13
-18 -10 -14 -8 -16 15 -15 35 2 64 -13 56 -27 -5 -7 -1 -9 9 -5 10 3 17 2 17
-3 0 -6 -32 -10 -72 -10 -66 1 -71 2 -54 15 13 10 15 15 6 15 -7 0 -22 7 -32
17 -15 14 -22 14 -46 4 -29 -13 -24 -7 22 27 21 16 33 19 46 12 28 -15 38 -11
16 5 -18 14 -18 15 8 25 15 5 36 10 47 10 10 0 19 5 19 10 0 6 7 10 15 10 29
0 95 88 95 127 0 12 -7 28 -16 35 -8 7 -25 21 -36 32 -20 18 -22 17 -100 -14
-44 -17 -82 -29 -85 -26 -3 2 -2 19 2 37 4 18 10 27 14 20 4 -6 8 11 8 39 0
27 -3 50 -8 50 -5 0 -9 8 -9 18 0 14 -2 15 -10 2 -7 -11 -5 -19 7 -27 27 -21
7 -26 -22 -7 -15 10 -23 20 -16 22 6 2 11 14 11 26 0 20 4 22 26 18 20 -4 31
1 45 19 24 31 25 48 1 18 l-19 -22 2 34 c1 19 -2 43 -8 54 -9 18 -8 18 6 7 13
-11 15 -10 10 7 -3 11 4 36 17 56 24 38 26 66 11 160 -5 33 -8 61 -6 63 3 4
195 29 233 31 l32 1 -2 -382z m1247 372 c4 -6 10 -8 15 -5 4 3 17 2 27 -2 17
-7 17 -11 6 -33 -8 -17 -13 -19 -13 -9 0 9 -7 19 -15 23 -10 4 -15 -1 -15 -14
0 -15 -7 -20 -26 -20 -14 0 -23 4 -19 10 3 6 1 10 -4 10 -6 0 -11 -4 -11 -10
0 -5 -16 -10 -36 -10 -21 0 -33 4 -29 10 10 16 -12 12 -29 -5 -16 -16 -66 -21
-66 -6 0 16 61 54 99 62 55 10 109 10 116 -1z m-3017 -12 c-6 -18 -28 -21 -28
-4 0 9 7 16 16 16 9 0 14 -5 12 -12z m3232 8 c0 -2 -7 -7 -16 -10 -8 -3 -12
-2 -9 4 6 10 25 14 25 6z m260 -6 c12 -8 12 -10 -5 -10 -11 0 -30 -3 -42 -6
-13 -4 -23 -2 -23 4 0 6 10 13 23 15 12 2 24 5 27 5 3 1 12 -3 20 -8z m-3600
-10 c0 -5 -2 -10 -4 -10 -3 0 -8 5 -11 10 -3 6 -1 10 4 10 6 0 11 -4 11 -10z
m246 -9 c-7 -11 17 -21 57 -22 18 0 26 -3 20 -6 -15 -5 -18 -33 -4 -33 5 0 11
6 13 13 3 6 17 12 31 12 27 1 35 -9 17 -20 -5 -3 -10 -15 -10 -26 0 -10 -3
-19 -8 -19 -4 0 -15 -12 -23 -26 l-16 -27 -7 35 c-6 32 -41 75 -50 60 -2 -4
-1 -39 3 -78 4 -48 3 -81 -6 -100 l-12 -29 -1 33 c0 17 -3 32 -7 32 -10 0 -16
186 -8 200 3 6 8 10 11 10 3 0 3 -4 0 -9z m1360 -26 c9 -37 3 -37 -34 -4 l-32
29 30 0 c23 0 31 -5 36 -25z m-1626 -40 c16 -8 40 -15 55 -15 20 0 25 -5 25
-23 0 -28 -65 -130 -109 -171 l-31 -30 0 149 c0 138 1 148 16 127 8 -12 28
-29 44 -37z m73 39 c19 -7 23 -24 6 -24 -17 0 -49 20 -49 31 0 6 6 8 13 5 6
-3 20 -9 30 -12z m661 -26 c-3 -24 -7 -50 -8 -58 -1 -8 -7 -25 -14 -38 -11
-20 -38 -97 -47 -137 -7 -31 -20 -45 -41 -45 -30 0 -31 22 -4 57 11 14 20 38
20 53 0 15 9 47 19 71 11 24 18 45 16 48 -11 11 -87 -53 -105 -89 -11 -22 -22
-40 -25 -40 -10 0 9 67 26 92 10 15 19 32 19 39 0 6 6 9 14 6 8 -3 17 -3 21 1
4 4 10 7 13 8 21 3 50 21 72 46 13 15 26 28 27 28 2 0 1 -19 -3 -42z m-734 11
c0 -4 -7 -6 -15 -3 -8 4 -15 10 -15 15 0 4 7 6 15 3 8 -4 15 -10 15 -15z
m1385 2 c3 -5 -15 -27 -40 -47 -25 -21 -45 -43 -45 -49 0 -6 18 -29 40 -50 38
-37 53 -75 29 -75 -6 0 -8 -13 -5 -35 4 -23 1 -37 -8 -42 -25 -15 -44 -59 -57
-131 -15 -81 -4 -74 -97 -57 -16 4 -35 17 -44 33 -15 24 -22 28 -53 24 -37 -4
-64 -31 -67 -67 -1 -11 -4 27 -8 85 -6 111 -4 134 11 124 13 -8 39 15 39 33 0
10 -4 11 -19 3 -36 -19 -46 -10 -16 14 27 21 28 26 17 50 -6 14 -9 33 -5 43 5
12 3 14 -7 8 -9 -5 -11 -4 -6 3 17 27 14 52 -7 67 -16 11 -17 15 -6 15 9 0 24
-9 34 -20 10 -11 21 -18 23 -15 3 3 -5 16 -18 30 l-23 25 39 2 c72 4 89 5 104
12 46 19 186 31 195 17z m208 -33 c6 2 14 -3 18 -10 7 -10 9 -10 10 2 1 25 18
-22 18 -52 1 -28 -14 -38 -22 -15 -3 8 -11 3 -25 -13 -21 -24 -22 -34 -7 -87
3 -10 -4 2 -16 25 l-21 44 21 15 c20 14 31 40 12 28 -6 -3 -15 3 -21 14 -5 11
-24 28 -40 38 -33 19 -20 39 13 21 18 -9 19 -8 14 13 l-6 24 21 -25 c11 -14
25 -24 31 -22z m-1553 16 c0 -2 -7 -4 -15 -4 -8 0 -15 4 -15 10 0 5 7 7 15 4
8 -4 15 -8 15 -10z m3227 10 c-3 -3 -12 -4 -19 -1 -8 3 -5 6 6 6 11 1 17 -2
13 -5z m-268 -8 c-2 -2 -17 -6 -34 -10 -22 -5 -26 -4 -15 4 14 9 59 15 49 6z
m166 -16 c-69 -22 -76 -24 -55 -10 11 8 -4 9 -50 6 l-65 -5 75 13 c41 7 93 14
115 14 39 1 39 1 -20 -18z m112 4 c-3 -3 -12 -4 -19 -1 -8 3 -5 6 6 6 11 1 17
-2 13 -5z m-40 -10 c-3 -3 -12 -4 -19 -1 -8 3 -5 6 6 6 11 1 17 -2 13 -5z
m-264 -11 c-7 -2 -21 -2 -30 0 -10 3 -4 5 12 5 17 0 24 -2 18 -5z m211 -80
c-21 -27 -40 -50 -41 -52 -2 -2 -3 0 -3 6 0 10 68 93 76 93 3 0 -12 -21 -32
-47z m-1734 7 c0 -17 -3 -18 -25 -8 -14 6 -25 15 -25 20 0 4 11 8 25 8 18 0
25 -5 25 -20z m-1374 -25 c-6 -25 -20 -41 -67 -80 -13 -11 -7 -1 13 21 20 23
39 51 43 63 9 30 18 26 11 -4z m2804 5 c-8 -5 -19 -10 -25 -10 -5 0 -3 5 5 10
8 5 20 10 25 10 6 0 3 -5 -5 -10z m-2770 -60 c-7 -33 -8 -33 -7 12 1 26 5 42
8 35 4 -7 4 -28 -1 -47z m2986 51 c-4 -5 -2 -11 3 -13 15 -5 -50 -119 -79
-139 -28 -20 -156 -39 -130 -19 12 9 8 10 -19 6 -18 -3 -42 -6 -53 -6 -10 0
-16 -4 -13 -10 4 -6 -6 -8 -24 -6 -18 2 -31 -1 -31 -8 0 -6 -4 -5 -9 3 -6 10
-19 12 -45 7 l-36 -7 21 35 c12 21 34 40 54 47 19 7 32 16 29 21 -3 4 -1 8 5
8 5 0 18 3 28 6 15 5 15 4 3 -5 -12 -8 -6 -11 24 -11 22 0 37 3 34 6 -8 7 25
42 35 37 4 -2 7 0 7 6 0 6 6 8 13 5 8 -3 37 4 66 16 60 23 65 24 55 9 -4 -7
-1 -10 7 -7 8 3 13 11 12 17 -2 6 9 11 23 11 14 0 23 -4 20 -9z m-1626 -11 c0
-5 -8 -10 -17 -10 -15 0 -16 2 -3 10 19 12 20 12 20 0z m1350 -5 c0 -2 -23
-16 -52 -31 -39 -20 -48 -28 -37 -36 10 -7 7 -7 -10 -3 -13 4 -21 3 -18 -2 3
-5 -13 -10 -36 -10 -38 -1 -39 -1 -12 6 17 4 49 20 73 35 24 15 53 31 65 36
28 11 27 11 27 5z m550 -19 c0 -2 -8 -10 -17 -17 -16 -13 -17 -12 -4 4 13 16
21 21 21 13z m-3290 -9 c0 -2 -10 -12 -22 -23 l-23 -19 19 23 c18 21 26 27 26
19z m3396 -22 c14 -14 33 -43 43 -65 10 -22 20 -37 24 -34 10 11 20 -66 13
-107 -24 -151 -151 -214 -225 -111 -29 42 -26 50 5 13 20 -24 34 -31 63 -31
46 0 76 21 101 70 40 79 16 215 -48 267 -15 13 -21 23 -14 23 7 0 24 -11 38
-25z m-2924 -45 c4 -24 1 -30 -14 -30 -19 0 -22 11 -12 47 8 30 21 21 26 -17z
m-495 12 c-13 -14 -14 -21 -5 -30 9 -9 9 -12 0 -12 -7 0 -12 5 -12 11 0 5 -4
7 -10 4 -19 -12 -10 7 13 26 28 24 35 24 14 1z m1478 -22 c9 -14 -36 -30 -56
-19 -12 6 -20 2 -29 -16 -7 -14 -17 -25 -22 -25 -5 0 0 14 12 30 12 17 26 28
31 25 5 -4 9 -1 9 4 0 14 47 14 55 1z m1917 -27 c10 -9 18 -20 18 -26 0 -5 -8
1 -18 14 -14 16 -24 20 -38 15 -18 -8 -18 -8 1 -17 18 -9 18 -9 -2 -5 -13 2
-26 -1 -30 -7 -3 -7 -3 -9 2 -5 4 4 16 3 26 -3 18 -9 18 -11 -6 -33 -18 -17
-22 -25 -13 -34 18 -18 36 -14 43 8 3 11 12 20 20 20 7 0 16 6 19 13 3 6 3 -6
0 -28 -3 -22 -16 -51 -28 -64 -20 -19 -27 -21 -45 -12 -39 21 -66 105 -43 137
10 14 54 44 66 44 5 0 18 -7 28 -17z m-3441 -20 c-12 -20 -14 -14 -5 12 4 9 9
14 11 11 3 -2 0 -13 -6 -23z m689 7 c0 -5 -5 -10 -11 -10 -5 0 -7 5 -4 10 3 6
8 10 11 10 2 0 4 -4 4 -10z m1625 -10 c-3 -5 -12 -10 -18 -10 -7 0 -6 4 3 10
19 12 23 12 15 0z m178 3 c-29 -2 -77 -2 -105 0 -29 2 -6 3 52 3 58 0 81 -1
53 -3z m-1790 -18 c-3 -9 -8 -14 -10 -11 -3 3 -2 9 2 15 9 16 15 13 8 -4z
m1545 1 c-7 -8 -15 -12 -17 -11 -5 6 10 25 20 25 5 0 4 -6 -3 -14z m-1483 -6
c-3 -5 -12 -10 -18 -10 -7 0 -6 4 3 10 19 12 23 12 15 0z m-20 -50 c7 0 15 6
18 13 3 6 5 3 4 -9 -1 -16 -6 -19 -24 -16 -16 3 -23 11 -22 26 1 17 2 17 6 4
2 -10 11 -18 18 -18z m1492 -17 c-3 -10 -5 -2 -5 17 0 19 2 27 5 18 2 -10 2
-26 0 -35z m-1607 27 c0 -5 -2 -10 -4 -10 -3 0 -8 5 -11 10 -3 6 -1 10 4 10 6
0 11 -4 11 -10z m85 -88 c4 -37 8 -76 11 -87 2 -11 1 -14 -2 -7 -12 25 -23 11
-19 -24 3 -20 1 -33 -4 -30 -5 4 -7 -2 -5 -11 2 -10 0 -25 -5 -33 -8 -12 -13
-12 -23 -2 -6 6 -8 12 -2 12 5 0 10 10 11 23 2 23 13 216 13 230 0 5 4 6 9 2
5 -3 12 -36 16 -73z m22 26 c-3 -7 -5 -2 -5 12 0 14 2 19 5 13 2 -7 2 -19 0
-25z m814 -8 c5 0 9 -9 9 -19 0 -18 -3 -19 -29 -10 -20 7 -28 15 -24 25 3 8
12 13 20 10 8 -3 19 -6 24 -6z m475 -1 c3 -6 1 -15 -6 -19 -10 -6 -8 -9 6 -13
16 -4 16 -5 -3 -6 -18 -1 -23 4 -23 24 0 26 14 33 26 14z m221 -41 c-3 -7 -5
-2 -5 12 0 14 2 19 5 13 2 -7 2 -19 0 -25z m903 -38 c33 -22 60 -46 60 -52 0
-7 10 -22 22 -35 16 -17 -7 -8 -76 30 -54 29 -98 56 -97 60 1 4 1 16 1 28 0
26 11 22 90 -31z m-2553 15 c14 -20 9 -51 -12 -74 -19 -19 -63 -6 -77 24 -25
55 53 99 89 50z m1808 5 l90 -9 -109 4 c-60 2 -114 9 -120 15 -7 7 -2 9 19 4
17 -3 71 -9 120 -14z m-885 -4 c39 -1 29 -48 -12 -64 -53 -20 -69 10 -17 32
l31 13 -31 6 c-17 4 -31 12 -31 18 0 7 7 8 18 3 9 -4 28 -8 42 -8z m2120 -6
c0 -5 -8 -10 -17 -10 -15 0 -16 2 -3 10 19 12 20 12 20 0z m-1940 -50 c0 -5
-5 -10 -11 -10 -5 0 -7 5 -4 10 3 6 8 10 11 10 2 0 4 -4 4 -10z m600 -61 c19
-10 28 -18 19 -19 -26 0 -69 39 -68 63 1 21 1 21 8 -2 3 -12 22 -31 41 -42z
m-1542 -64 c0 -25 -2 -24 -9 10 -10 51 -10 92 1 50 4 -16 8 -43 8 -60z m1786
60 c8 -8 23 -15 33 -15 12 0 14 -3 6 -8 -18 -11 -4 -54 16 -48 9 2 30 7 48 11
34 7 36 27 4 54 -14 12 -13 13 9 8 14 -3 104 -20 200 -38 126 -23 181 -38 197
-52 20 -18 31 -19 131 -13 93 6 110 5 122 -9 11 -14 10 -17 -9 -22 -22 -6 -21
-7 15 -44 l38 -39 -38 0 c-30 0 -47 8 -78 36 -24 21 -46 33 -55 30 -8 -3 -28
-6 -44 -6 -21 0 -28 -4 -24 -13 4 -6 -2 -2 -13 10 -11 13 -30 24 -42 25 -19 3
-25 -4 -34 -37 -13 -44 -38 -55 -75 -35 -14 7 -21 7 -21 0 0 -5 -7 -10 -16
-10 -10 0 -14 6 -10 15 3 9 0 15 -9 15 -9 0 -12 -6 -9 -15 4 -8 1 -15 -5 -15
-6 0 -11 6 -11 13 0 8 -3 8 -8 1 -4 -5 -43 -11 -87 -12 l-80 -2 30 20 c37 25
64 28 45 5 -7 -8 -10 -15 -7 -15 5 0 87 106 87 113 0 3 -17 7 -37 10 -36 6
-41 4 -109 -64 -63 -63 -75 -70 -104 -67 l-33 3 73 60 c40 33 87 73 104 89 30
27 30 27 2 7 -16 -12 -37 -21 -47 -21 -11 0 -19 -4 -19 -9 0 -5 -14 -14 -30
-20 -17 -5 -33 -18 -37 -28 -4 -10 -18 -33 -31 -51 l-25 -32 -256 2 c-253 3
-256 3 -259 24 -3 18 7 26 53 45 31 13 52 25 47 27 -6 2 -24 -4 -40 -12 -28
-15 -30 -14 -65 22 -29 30 -37 46 -37 75 0 20 4 37 8 37 14 0 32 -23 32 -41 0
-21 24 -31 39 -16 9 9 11 8 6 -5 -5 -13 -2 -18 10 -18 9 0 13 5 10 11 -4 5 21
-4 56 -22 58 -29 62 -32 44 -45 -23 -17 -12 -18 18 -3 32 17 32 18 11 33 -18
14 -18 15 11 21 17 3 44 10 60 14 54 16 112 23 95 12 -13 -9 -12 -11 5 -11 11
0 30 -3 43 -6 18 -5 21 -3 16 10 -4 11 -13 15 -26 10 -13 -4 -18 -2 -14 4 3 6
-2 13 -11 15 -10 2 -6 3 9 1 15 -2 28 0 30 4 5 11 52 41 65 41 6 1 18 -6 27
-14z m-1050 -29 c-6 -16 -24 -23 -24 -8 0 10 22 33 27 28 2 -2 1 -11 -3 -20z
m879 7 c-7 -2 -19 -2 -25 0 -7 3 -2 5 12 5 14 0 19 -2 13 -5z m-643 -13 c0 -5
-2 -10 -4 -10 -3 0 -8 5 -11 10 -3 6 -1 10 4 10 6 0 11 -4 11 -10z m-519 -58
c-7 -13 -30 -24 -73 -33 -35 -7 -69 -13 -76 -12 -24 2 -6 -22 24 -31 16 -5 52
-17 79 -27 l50 -18 -80 0 c-44 0 -86 3 -93 8 -9 5 -12 24 -10 56 3 46 5 49 36
57 37 10 145 25 150 22 2 -1 -1 -11 -7 -22z m111 -35 c-18 -17 -24 -18 -50 -8
-23 10 -28 17 -25 36 5 23 5 23 50 8 l45 -16 -20 -20z m-555 -14 c-3 -10 -5
-2 -5 17 0 19 2 27 5 18 2 -10 2 -26 0 -35z m701 -8 c-3 -3 -9 2 -12 12 -6 14
-5 15 5 6 7 -7 10 -15 7 -18z m-800 -27 c-2 -20 -9 -34 -19 -36 -12 -2 -14 5
-11 33 6 47 35 50 30 3z m39 -30 c-3 -7 -5 -2 -5 12 0 14 2 19 5 13 2 -7 2
-19 0 -25z m796 12 c4 -14 0 -20 -13 -20 -24 0 -46 26 -28 33 25 10 36 7 41
-13z m1646 -16 c2 -2 -21 -4 -52 -4 -33 0 -57 4 -57 10 0 10 98 4 109 -6z"/>
<path d="M1438 3993 c-2 -5 -1 -64 2 -133 l6 -125 2 133 c2 119 0 147 -10 125z"/>
<path d="M1102 4310 c0 -19 2 -27 5 -17 2 9 2 25 0 35 -3 9 -5 1 -5 -18z"/>
<path d="M1173 4208 c1 -26 5 -44 10 -39 4 4 3 25 -2 47 l-10 39 2 -47z"/>
<path d="M1090 3965 c0 -18 4 -23 15 -19 8 4 15 12 15 19 0 7 -7 15 -15 19
-11 4 -15 -1 -15 -19z"/>
<path d="M586 3964 c-3 -8 -10 -12 -16 -9 -6 3 -7 -1 -4 -9 9 -23 19 -20 32 9
6 14 8 25 3 25 -5 0 -12 -7 -15 -16z"/>
<path d="M635 3957 c20 -16 20 -16 -1 -11 -32 8 -40 -25 -12 -45 13 -9 25 -16
28 -17 25 -4 60 -26 55 -34 -9 -14 1 -13 35 5 28 14 35 13 31 -8 -1 -5 2 -6 7
-3 4 2 6 24 3 48 -3 24 -6 35 -9 26 -2 -10 -10 -18 -18 -18 -10 0 -13 6 -10
18 5 14 -3 19 -42 29 -26 6 -56 15 -67 18 l-20 8 20 -16z m12 -33 c-3 -3 -12
-4 -19 -1 -8 3 -5 6 6 6 11 1 17 -2 13 -5z"/>
<path d="M1075 3830 c3 -5 8 -10 11 -10 2 0 4 5 4 10 0 6 -5 10 -11 10 -5 0
-7 -4 -4 -10z"/>
<path d="M642 3793 c2 -10 11 -18 21 -18 10 0 22 -7 27 -15 5 -8 10 -11 10 -6
0 5 6 4 13 -2 18 -15 74 -25 81 -14 7 11 -42 35 -55 26 -6 -3 -25 6 -44 20
-39 30 -58 33 -53 9z"/>
<path d="M2236 4487 c3 -10 9 -15 12 -12 3 3 0 11 -7 18 -10 9 -11 8 -5 -6z"/>
<path d="M703 4443 c9 -9 20 -13 24 -9 4 4 1 11 -7 16 -25 16 -35 11 -17 -7z"/>
<path d="M738 4379 c9 -23 18 -37 20 -31 3 10 -24 72 -32 72 -3 0 3 -19 12
-41z"/>
<path d="M765 4331 c-7 -12 4 -41 16 -41 4 0 6 8 3 18 -4 12 0 10 15 -7 12
-13 21 -30 21 -39 0 -8 3 -12 6 -9 10 10 -15 61 -36 75 -10 6 -22 8 -25 3z"/>
<path d="M1006 4284 c-9 -23 -8 -24 13 -24 28 0 35 17 12 29 -15 8 -20 7 -25
-5z"/>
<path d="M1527 3937 c-3 -9 -2 -19 4 -23 15 -9 18 -2 9 20 -6 17 -7 18 -13 3z"/>
<path d="M2345 4030 c-3 -5 -1 -10 4 -10 6 0 11 5 11 10 0 6 -2 10 -4 10 -3 0
-8 -4 -11 -10z"/>
<path d="M3290 4026 c0 -2 8 -10 18 -17 15 -13 16 -12 3 4 -13 16 -21 21 -21
13z"/>
<path d="M2756 3797 c4 -10 16 -15 34 -14 33 2 27 13 -13 22 -22 6 -26 4 -21
-8z"/>
<path d="M2868 3703 c6 -2 18 -2 25 0 6 3 1 5 -13 5 -14 0 -19 -2 -12 -5z"/>
<path d="M2480 3385 c0 -118 1 -125 20 -125 19 0 20 7 20 125 0 118 -1 125
-20 125 -19 0 -20 -7 -20 -125z"/>
<path d="M920 3385 c0 -104 2 -125 15 -125 13 0 15 21 15 125 0 104 -2 125
-15 125 -13 0 -15 -21 -15 -125z"/>
<path d="M1310 3480 c0 -23 4 -30 20 -30 16 0 20 7 20 30 0 23 -4 30 -20 30
-16 0 -20 -7 -20 -30z"/>
<path d="M1700 3290 c0 -23 4 -30 20 -30 16 0 20 7 20 30 0 23 -4 30 -20 30
-16 0 -20 -7 -20 -30z"/>
<path d="M3591 3534 c0 -11 3 -14 6 -6 3 7 2 16 -1 19 -3 4 -6 -2 -5 -13z"/>
<path d="M3580 3506 c0 -7 63 -36 68 -32 2 3 -10 12 -27 20 -31 16 -41 19 -41
12z"/>
<path d="M3062 3315 c0 -16 2 -22 5 -12 2 9 2 23 0 30 -3 6 -5 -1 -5 -18z"/>
<path d="M3003 3098 c0 -13 1 -18 4 -11 2 7 10 10 17 7 7 -3 13 2 13 11 0 25
-33 18 -34 -7z"/>
<path d="M2801 3084 c0 -11 3 -14 6 -6 3 7 2 16 -1 19 -3 4 -6 -2 -5 -13z"/>
<path d="M220 3528 c-84 -99 -89 -109 -16 -33 86 89 91 95 79 95 -6 0 -34 -28
-63 -62z"/>
<path d="M342 3538 c-7 -7 -12 -9 -12 -4 0 10 -43 -24 -100 -78 -25 -24 -56
-49 -70 -56 -14 -7 -20 -15 -13 -17 22 -8 89 36 153 101 35 36 62 66 59 66 -3
0 -10 -5 -17 -12z"/>
<path d="M310 3469 l-55 -51 58 47 c50 42 64 55 55 55 -2 0 -28 -23 -58 -51z"/>
<path d="M255 2945 c-31 -30 -31 -36 0 -90 36 -61 51 -72 73 -52 9 8 31 18 49
22 17 3 38 13 45 22 12 15 11 15 -10 4 -19 -10 -30 -10 -57 3 -18 9 -45 16
-59 16 -44 0 -57 62 -15 75 10 4 19 11 19 16 0 16 -20 10 -45 -16z"/>
<path d="M120 2797 c0 -18 87 -114 108 -119 18 -5 18 -3 7 19 -7 13 -21 30
-31 38 -16 12 -17 14 -3 15 9 0 34 -6 55 -14 22 -7 54 -11 73 -8 29 4 33 2 28
-12 -4 -10 -7 -20 -7 -22 0 -2 -20 -4 -45 -4 -33 0 -45 -4 -45 -15 0 -10 10
-15 34 -15 28 0 41 8 70 43 l35 42 -26 11 c-15 7 -64 15 -108 19 -44 4 -95 13
-112 20 -25 11 -33 11 -33 2z"/>
<path d="M3680 2829 c0 -5 5 -7 10 -4 6 3 10 8 10 11 0 2 -4 4 -10 4 -5 0 -10
-5 -10 -11z"/>
<path d="M2090 2815 c0 -28 4 -35 20 -35 16 0 20 7 20 35 0 28 -4 35 -20 35
-16 0 -20 -7 -20 -35z"/>
<path d="M3360 2596 c0 -2 7 -7 16 -10 8 -3 12 -2 9 4 -6 10 -25 14 -25 6z"/>
<path d="M2560 2595 c0 -8 8 -15 18 -15 9 0 28 -9 42 -20 35 -27 40 -25 40 15
l0 35 -50 0 c-38 0 -50 -4 -50 -15z m80 -10 c0 -8 -4 -15 -10 -15 -5 0 -10 7
-10 15 0 8 5 15 10 15 6 0 10 -7 10 -15z"/>
<path d="M2620 2524 c0 -8 5 -12 10 -9 6 4 8 11 5 16 -9 14 -15 11 -15 -7z"/>
<path d="M220 2093 c-28 -9 -60 -26 -60 -33 0 -5 25 -6 67 -1 7 0 17 10 23 21
11 21 3 24 -30 13z"/>
<path d="M355 1911 c-6 -5 -21 -12 -35 -15 -14 -2 23 -4 82 -2 73 2 114 -1
130 -10 12 -7 28 -13 33 -13 6 0 -10 11 -35 24 -47 25 -156 35 -175 16z"/>
<path d="M900 2070 c0 -23 4 -30 20 -30 16 0 20 7 20 30 0 23 -4 30 -20 30
-16 0 -20 -7 -20 -30z"/>
<path d="M2100 2164 c0 -114 2 -125 18 -122 15 3 17 18 20 126 2 117 2 122
-18 122 -19 0 -20 -6 -20 -126z"/>
<path d="M2550 2347 c0 -2 14 -14 31 -26 18 -13 29 -19 25 -12 -12 18 9 13 40
-11 15 -13 25 -17 21 -11 -4 7 0 16 10 21 26 15 25 42 -2 40 -13 -1 -21 -6
-19 -10 3 -4 1 -8 -5 -8 -5 0 -13 5 -16 10 -3 6 -11 10 -18 10 -6 0 -2 -6 9
-14 18 -14 18 -15 -6 -12 -14 1 -35 8 -47 15 -13 6 -23 10 -23 8z m136 -19 c4
-7 4 -10 -1 -6 -4 4 -13 0 -20 -9 -9 -13 -14 -13 -20 -3 -5 8 -4 11 2 7 6 -4
13 0 17 8 7 18 13 19 22 3z"/>
<path d="M2427 2319 c7 -7 15 -10 18 -7 3 3 -2 9 -12 12 -14 6 -15 5 -6 -5z"/>
<path d="M2442 2274 c10 -10 20 -16 22 -13 3 3 -5 11 -17 18 -21 13 -21 12 -5
-5z"/>
<path d="M2480 2276 c0 -2 7 -7 16 -10 8 -3 12 -2 9 4 -6 10 -25 14 -25 6z"/>
<path d="M2435 2245 c22 -14 45 -25 50 -25 6 0 -10 11 -34 25 -56 32 -68 32
-16 0z"/>
<path d="M2504 2235 c15 -8 33 -15 40 -15 6 0 -2 7 -18 15 -15 8 -33 15 -40
15 -6 0 2 -7 18 -15z"/>
<path d="M2540 2246 c0 -2 7 -7 16 -10 8 -3 12 -2 9 4 -6 10 -25 14 -25 6z"/>
<path d="M2508 2208 c6 -6 18 -8 28 -6 14 3 12 5 -9 10 -19 3 -25 2 -19 -4z"/>
<path d="M2478 2193 c7 -3 16 -2 19 1 4 3 -2 6 -13 5 -11 0 -14 -3 -6 -6z"/>
<path d="M2620 2155 c-90 -14 -200 -50 -200 -66 0 -5 6 -8 13 -6 8 1 13 -17
15 -58 3 -47 0 -62 -14 -72 -33 -24 -8 -22 81 7 50 16 87 30 83 31 -5 1 -12 3
-18 4 -5 1 -14 3 -20 4 -5 0 -10 10 -10 21 0 13 5 18 15 14 12 -5 15 2 15 32
0 30 3 35 12 26 22 -22 38 -13 38 19 0 54 25 27 28 -30 2 -40 -1 -58 -15 -73
-17 -19 -17 -20 57 -13 41 4 77 9 79 11 3 2 -3 10 -13 17 -13 10 -17 24 -14
67 5 82 25 77 71 -15 33 -67 40 -75 66 -75 25 0 30 6 46 48 10 26 24 57 32 70
23 37 43 11 43 -55 0 -46 -3 -56 -20 -60 -24 -6 -17 -23 10 -23 11 0 53 -11
95 -24 l75 -24 0 45 c0 40 -2 44 -20 38 -17 -5 -20 -2 -20 21 0 27 0 27 21 8
20 -18 20 -18 17 21 l-3 39 -71 22 c-140 44 -310 54 -474 29z m307 -16 c11
-11 -4 -79 -18 -79 -11 0 -32 68 -24 80 8 13 28 13 42 -1z m-365 -51 c-9 -9
-12 -7 -12 12 0 19 3 21 12 12 9 -9 9 -15 0 -24z m548 -3 c0 -8 -4 -15 -10
-15 -5 0 -10 7 -10 15 0 8 5 15 10 15 6 0 10 -7 10 -15z m4 -86 c-10 -16 -24
-9 -24 12 0 18 2 19 15 9 8 -7 12 -16 9 -21z"/>
<path d="M2658 1963 c12 -2 32 -2 45 0 12 2 2 4 -23 4 -25 0 -35 -2 -22 -4z"/>
<path d="M2871 1966 c2 -2 36 -6 74 -9 42 -3 58 -2 40 3 -30 8 -122 13 -114 6z"/>
<path d="M3620 1696 c0 -8 -6 -17 -12 -20 -7 -2 -3 -4 9 -2 30 3 34 8 17 24
-11 10 -14 10 -14 -2z"/>
<path d="M1975 1810 c-12 -4 -26 -14 -32 -21 -13 -17 -24 -91 -12 -83 5 3 9
13 9 23 0 13 7 19 25 19 27 0 60 -31 50 -47 -12 -20 7 -11 25 12 13 15 15 26
8 34 -6 7 -8 19 -5 28 4 8 -3 21 -16 30 -24 17 -24 17 -52 5z m43 -22 c19 -19
14 -28 -18 -28 -18 0 -30 5 -30 13 0 28 27 36 48 15z m17 -58 c3 -5 1 -10 -4
-10 -6 0 -11 5 -11 10 0 6 2 10 4 10 3 0 8 -4 11 -10z"/>
<path d="M1877 1687 c3 -14 -2 -29 -12 -37 -15 -12 -19 -12 -30 3 -16 22 -45
22 -45 0 0 -9 -3 -13 -7 -9 -5 4 -8 13 -8 19 0 5 -7 12 -15 14 -13 4 -13 3 -1
-5 12 -9 9 -16 -19 -42 -22 -20 -40 -30 -53 -26 -10 2 -16 2 -13 -1 3 -3 -5
-18 -17 -33 -31 -36 -56 -112 -39 -118 7 -2 12 -10 12 -18 0 -8 7 -14 16 -14
8 0 13 -4 9 -9 -3 -6 -18 -6 -37 0 -31 8 -48 5 -35 -7 13 -13 87 -23 109 -15
23 8 68 -2 68 -15 0 -4 -3 -4 -7 -1 -3 4 -12 2 -19 -4 -8 -6 -20 -9 -28 -6 -8
3 -17 -1 -20 -9 -3 -8 -11 -14 -19 -14 -7 0 -24 -12 -38 -26 -23 -25 -20 -24
50 11 40 20 107 45 148 56 87 22 136 56 121 84 -15 26 10 37 40 17 l25 -16
-24 -6 c-16 -4 -1 -8 44 -13 37 -3 107 -20 155 -36 118 -40 205 -62 214 -53
10 10 -121 146 -162 167 -19 9 -44 25 -55 34 -19 15 -19 15 -5 -3 14 -17 11
-17 -27 3 -23 11 -53 21 -65 22 -22 1 -22 1 2 8 l25 7 -25 7 c-14 4 -38 7 -55
8 -19 1 -23 3 -12 6 17 4 17 6 2 23 -12 13 -13 20 -4 25 7 5 0 13 -21 22 -40
16 -48 11 -23 -14 18 -18 17 -19 -15 -35 l-34 -16 -13 31 c-7 17 -11 37 -8 44
3 8 -2 13 -15 13 -15 0 -18 -5 -15 -23z m180 -93 c-3 -3 -12 -4 -19 -1 -8 3
-5 6 6 6 11 1 17 -2 13 -5z m41 -64 c18 -17 32 -35 32 -40 0 -18 -31 -18 -82
1 -67 26 -81 39 -42 40 l29 1 -27 11 c-48 19 -42 35 11 26 34 -5 57 -16 79
-39z m-432 14 c-4 -9 -9 -15 -11 -12 -3 3 -3 13 1 22 4 9 9 15 11 12 3 -3 3
-13 -1 -22z m193 0 c13 -12 -8 -10 -29 2 l-25 15 25 -7 c14 -3 27 -8 29 -10z
m-103 -29 c1 -10 -6 -15 -22 -15 -26 0 -32 18 -12 38 13 13 30 2 34 -23z m64
-20 c-7 -9 -15 -13 -17 -11 -7 7 7 26 19 26 6 0 6 -6 -2 -15z"/>
<path d="M2065 1511 c17 -10 32 -16 35 -14 8 7 -32 33 -49 33 -9 0 -3 -8 14
-19z"/>
<path d="M1580 1373 c0 -4 5 -15 10 -23 8 -13 10 -13 10 2 0 9 -4 20 -10 23
-5 3 -10 3 -10 -2z"/>
<path d="M1304 1195 c11 -8 29 -15 40 -15 29 0 8 18 -29 24 -28 5 -29 4 -11
-9z"/>
<path d="M1308 1163 c7 -3 16 -2 19 1 4 3 -2 6 -13 5 -11 0 -14 -3 -6 -6z"/>
<path d="M1535 1150 c-3 -5 -1 -10 4 -10 6 0 11 5 11 10 0 6 -2 10 -4 10 -3 0
-8 -4 -11 -10z"/>
<path d="M1010 948 c0 -6 3 -8 7 -5 3 4 12 2 20 -4 8 -7 13 -8 13 -1 0 5 -7
13 -16 16 -22 8 -24 8 -24 -6z"/>
<path d="M1004 902 c-6 -4 -11 -15 -11 -24 0 -19 23 -32 32 -18 4 6 1 10 -4
10 -6 0 -11 7 -11 16 0 10 5 14 16 10 8 -3 12 -2 9 4 -7 12 -16 12 -31 2z"/>
<path d="M965 600 c3 -5 8 -10 11 -10 2 0 4 5 4 10 0 6 -5 10 -11 10 -5 0 -7
-4 -4 -10z"/>
<path d="M2980 1323 c0 -13 29 -38 35 -31 3 3 -4 13 -15 23 -11 10 -20 13 -20
8z"/>
<path d="M3561 1210 c0 -8 4 -22 9 -30 12 -18 12 -2 0 25 -6 13 -9 15 -9 5z"/>
<path d="M3615 1210 c3 -5 10 -10 16 -10 5 0 9 5 9 10 0 6 -7 10 -16 10 -8 0
-12 -4 -9 -10z"/>
<path d="M3192 1158 c2 -14 11 -24 23 -25 16 -1 16 -1 3 3 -27 8 -21 24 9 24
32 0 28 5 -10 14 -25 6 -28 4 -25 -16z"/>
<path d="M3245 1120 c3 -5 8 -10 11 -10 2 0 4 5 4 10 0 6 -5 10 -11 10 -5 0
-7 -4 -4 -10z"/>
<path d="M3210 1100 c20 -13 33 -13 25 0 -3 6 -14 10 -23 10 -15 0 -15 -2 -2
-10z"/>
<path d="M2501 1054 c0 -11 3 -14 6 -6 3 7 2 16 -1 19 -3 4 -6 -2 -5 -13z"/>
<path d="M2542 1030 c0 -14 2 -19 5 -12 2 6 2 18 0 25 -3 6 -5 1 -5 -13z"/>
<path d="M2503 995 c0 -8 4 -15 9 -15 4 0 8 4 8 9 0 6 -4 12 -8 15 -5 3 -9 -1
-9 -9z"/>
<path d="M2557 998 c-24 -15 1 -17 43 -3 l45 14 -38 -2 c-21 -1 -44 -5 -50 -9z"/>
<path d="M2476 965 c4 -8 8 -15 10 -15 2 0 4 7 4 15 0 8 -4 15 -10 15 -5 0 -7
-7 -4 -15z"/>
<path d="M2812 935 c0 -16 2 -22 5 -12 2 9 2 23 0 30 -3 6 -5 -1 -5 -18z"/>
<path d="M2576 941 c-4 -5 3 -7 14 -4 23 6 26 13 6 13 -8 0 -17 -4 -20 -9z"/>
<path d="M2605 926 c-24 -10 -26 -13 -12 -19 9 -3 17 -14 17 -24 0 -12 6 -8
20 15 29 48 27 50 -25 28z"/>
<path d="M2481 904 c0 -11 3 -14 6 -6 3 7 2 16 -1 19 -3 4 -6 -2 -5 -13z"/>
<path d="M2302 850 c0 -14 2 -19 5 -12 2 6 2 18 0 25 -3 6 -5 1 -5 -13z"/>
<path d="M1751 574 c0 -11 3 -14 6 -6 3 7 2 16 -1 19 -3 4 -6 -2 -5 -13z"/>
<path d="M1747 433 c-4 -3 -7 -11 -7 -17 0 -6 5 -5 12 2 6 6 9 14 7 17 -3 3
-9 2 -12 -2z"/>
<path d="M2002 210 c0 -14 2 -19 5 -12 2 6 2 18 0 25 -3 6 -5 1 -5 -13z"/>
<path d="M1284 908 c-4 -6 -2 -14 4 -16 7 -2 9 -9 6 -14 -4 -7 -2 -8 4 -4 7 4
17 16 22 27 9 16 7 19 -9 19 -11 0 -23 -5 -27 -12z"/>
<path d="M684 408 c-3 -4 1 -11 10 -14 22 -8 72 0 66 11 -6 12 -69 15 -76 3z"/>
<path d="M3037 223 c-11 -10 -8 -45 3 -38 5 3 7 12 4 19 -3 8 2 16 13 19 14 4
14 5 2 6 -9 0 -19 -2 -22 -6z"/>
<path d="M3137 191 c-19 -33 -22 -61 -6 -61 5 0 7 5 4 10 -4 6 6 10 22 11 18
0 23 3 13 7 -19 9 -27 46 -8 39 7 -2 12 -10 11 -16 -5 -20 15 -12 20 9 3 11 1
17 -4 14 -6 -3 -16 -1 -23 5 -9 8 -16 3 -29 -18z"/>
<path d="M3063 171 c-10 -16 -9 -20 3 -25 25 -9 27 -7 13 11 -12 15 -12 16 5
10 16 -6 17 -5 6 8 -15 18 -13 19 -27 -4z"/>
<path d="M2990 150 c-9 -6 -10 -10 -3 -10 6 0 15 5 18 10 8 12 4 12 -15 0z"/>
<path d="M2355 130 c-18 -20 -17 -20 16 -19 31 1 32 2 9 8 -24 7 -24 7 -5 19
11 6 15 12 9 12 -6 0 -19 -9 -29 -20z"/>
<path d="M3155 130 c3 -5 8 -10 11 -10 2 0 4 5 4 10 0 6 -5 10 -11 10 -5 0 -7
-4 -4 -10z"/>
</g>
</svg>
